<svg width="30" height="30" viewBox="0 0 30 30" fill="none" xmlns="http://www.w3.org/2000/svg">
<g clip-path="url(#clip0_444_2645)">
<path d="M20.9664 0.0150131C20.9026 -0.0562368 18.6057 0.0431382 16.607 2.21251C14.6082 4.38001 14.9157 6.86626 14.9607 6.93001C15.0057 6.99376 17.8107 7.09314 19.6014 4.57126C21.392 2.04939 21.0301 0.0881381 20.9664 0.0150131ZM27.1801 22.0144C27.0901 21.8344 22.8207 19.7006 23.2182 15.5981C23.6157 11.4938 26.3589 10.3688 26.402 10.2469C26.4451 10.125 25.2826 8.76564 24.0507 8.07751C23.1463 7.59236 22.1452 7.3144 21.1201 7.26376C20.9176 7.25814 20.2145 7.08564 18.7689 7.48126C17.8164 7.74189 15.6695 8.58564 15.0789 8.61939C14.4864 8.65314 12.7239 7.64064 10.8282 7.37251C9.6151 7.13814 8.32885 7.61814 7.40823 7.98751C6.48948 8.35501 4.74198 9.40126 3.51948 12.1819C2.29698 14.9606 2.93635 19.3631 3.39385 20.7319C3.85135 22.0988 4.56573 24.3394 5.78073 25.9744C6.86073 27.8194 8.29323 29.1 8.89136 29.535C9.48948 29.97 11.177 30.2588 12.347 29.6606C13.2882 29.0831 14.987 28.7513 15.6582 28.7756C16.3276 28.8 17.6476 29.0644 18.9995 29.7863C20.0701 30.1556 21.0826 30.0019 22.097 29.5894C23.1114 29.175 24.5795 27.6038 26.2932 24.4181C26.9439 22.9369 27.2401 22.1363 27.1801 22.0144Z" fill="black"/>
<path d="M20.9664 0.0150131C20.9026 -0.0562368 18.6057 0.0431382 16.607 2.21251C14.6082 4.38001 14.9157 6.86626 14.9607 6.93001C15.0057 6.99376 17.8107 7.09314 19.6014 4.57126C21.392 2.04939 21.0301 0.0881381 20.9664 0.0150131ZM27.1801 22.0144C27.0901 21.8344 22.8207 19.7006 23.2182 15.5981C23.6157 11.4938 26.3589 10.3688 26.402 10.2469C26.4451 10.125 25.2826 8.76564 24.0507 8.07751C23.1463 7.59236 22.1452 7.3144 21.1201 7.26376C20.9176 7.25814 20.2145 7.08564 18.7689 7.48126C17.8164 7.74189 15.6695 8.58564 15.0789 8.61939C14.4864 8.65314 12.7239 7.64064 10.8282 7.37251C9.6151 7.13814 8.32885 7.61814 7.40823 7.98751C6.48948 8.35501 4.74198 9.40126 3.51948 12.1819C2.29698 14.9606 2.93635 19.3631 3.39385 20.7319C3.85135 22.0988 4.56573 24.3394 5.78073 25.9744C6.86073 27.8194 8.29323 29.1 8.89136 29.535C9.48948 29.97 11.177 30.2588 12.347 29.6606C13.2882 29.0831 14.987 28.7513 15.6582 28.7756C16.3276 28.8 17.6476 29.0644 18.9995 29.7863C20.0701 30.1556 21.0826 30.0019 22.097 29.5894C23.1114 29.175 24.5795 27.6038 26.2932 24.4181C26.9439 22.9369 27.2401 22.1363 27.1801 22.0144Z" fill="black"/>
</g>
<defs>
<clipPath id="clip0_444_2645">
<rect width="30" height="30" fill="white"/>
</clipPath>
</defs>
</svg>
