<svg width="30" height="30" viewBox="0 0 30 30" fill="none" xmlns="http://www.w3.org/2000/svg">
<path fill-rule="evenodd" clip-rule="evenodd" d="M15 1.5C7.5435 1.5 1.5 7.54463 1.5 15C1.5 22.4554 7.5435 28.5 15 28.5C22.4554 28.5 28.5 22.4554 28.5 15C28.5 7.54463 22.4554 1.5 15 1.5ZM15.1575 22.8953C10.806 22.8953 7.2825 19.3627 7.2825 15C7.2825 10.6372 10.806 7.10475 15.1575 7.10475C17.2838 7.10475 19.0613 7.88888 20.4248 9.16237L18.204 11.3876V11.3831C17.3771 10.5934 16.3286 10.1884 15.1575 10.1884C12.5588 10.1884 10.4471 12.3889 10.4471 14.9955C10.4471 17.5999 12.5588 19.8071 15.1575 19.8071C17.5155 19.8071 19.1198 18.4549 19.4505 16.5986H15.1575V13.5195H22.5656C22.6646 14.0483 22.7175 14.5995 22.7175 15.1777C22.7175 19.689 19.7059 22.8953 15.1575 22.8953Z" fill="black"/>
</svg>
