<svg width="17" height="18" viewBox="0 0 17 18" fill="none" xmlns="http://www.w3.org/2000/svg">
<path fill-rule="evenodd" clip-rule="evenodd" d="M14.25 10.125C14.375 10.875 14.5 11.5 14.75 12.25L15.5 14.375L14.875 15.25H10.5C10.5 15.875 10.25 16.5 9.75 17C9.25 17.5 8.625 17.75 8 17.75C7.375 17.75 6.625 17.5 6.25 17C5.75 16.5 5.5 15.875 5.5 15.25H1.125L0.5 14.375L1.25 12.25C1.5 11.25 1.75 10.25 1.75 9.25V6.5C1.75 5.625 1.875 4.75 2.25 4C2.625 3.125 3.125 2.5 3.75 1.875C4.375 1.25 5.125 0.875 6 0.625C6.625 0.375 7.375 0.25 8 0.25C7.75 0.625 7.5 1.125 7.25 1.625C7 1.625 6.75 1.625 6.375 1.875C5.75 2 5.125 2.375 4.625 2.875C4.125 3.25 3.625 3.875 3.375 4.5C3.125 5.125 3 5.75 3 6.5V9.25C3 10.375 2.75 11.5 2.5 12.625L2 14H14L13.5 12.625C13.2812 11.9675 13.1575 11.2125 13.0462 10.5325L13 10.25C13.5 10.25 13.875 10.25 14.25 10.125ZM8 16.5C8.25 16.5 8.625 16.375 8.875 16.125C9.125 15.875 9.25 15.625 9.25 15.25H6.75C6.75 15.625 6.875 15.875 7.125 16.125C7.375 16.375 7.75 16.5 8 16.5ZM16.75 4C16.75 4.99456 16.3549 5.94839 15.6517 6.65165C14.9484 7.35491 13.9946 7.75 13 7.75C12.0054 7.75 11.0516 7.35491 10.3483 6.65165C9.64509 5.94839 9.25 4.99456 9.25 4C9.25 3.00544 9.64509 2.05161 10.3483 1.34835C11.0516 0.645088 12.0054 0.25 13 0.25C13.9946 0.25 14.9484 0.645088 15.6517 1.34835C16.3549 2.05161 16.75 3.00544 16.75 4Z" fill="white"/>
</svg>
