<svg width="186" height="122" viewBox="0 0 186 122" fill="none" xmlns="http://www.w3.org/2000/svg">
<path d="M33.4393 120.58L15.6965 120.72L15.5206 98.3226L33.2634 98.1832L33.4393 120.58Z" fill="#EBEBEB"/>
<path d="M22.4637 98.987L22.7787 120.672L25.5809 120.652L24.9812 98.9668L22.4637 98.987Z" fill="#FAFAFA"/>
<path d="M43.4532 98.823L33.2749 98.9036L15.5315 99.0422L33.2925 101.378L33.4437 120.588L43.6195 120.51L43.4532 98.823Z" fill="#E0E0E0"/>
<path d="M37.9113 98.8662L38.317 120.551L41.336 120.528L40.8421 98.8435L37.9113 98.8662Z" fill="#FAFAFA"/>
<path d="M29.8549 92.266C29.8549 92.3114 30.1548 92.3668 30.7017 92.4197C31.4746 92.495 32.251 92.5295 33.0276 92.5231C34.2004 92.528 35.3685 92.3746 36.5002 92.0669C36.6761 92.0103 36.8451 91.9342 37.0042 91.8401C37.1913 91.7327 37.3502 91.5824 37.4679 91.4017C37.5894 91.2075 37.654 90.9831 37.6544 90.754C37.6538 90.5534 37.6284 90.3537 37.5788 90.1593C37.4201 89.4314 37.2001 88.7182 36.921 88.0274C36.767 87.6666 36.5744 87.3235 36.3465 87.0042C36.1194 86.6761 35.8331 86.3932 35.5023 86.1701C35.3248 86.0504 35.1265 85.965 34.9176 85.9181C34.7051 85.8717 34.485 85.8717 34.2725 85.9181C33.9104 86.0218 33.5756 86.2042 33.2922 86.4523C32.3751 87.1948 31.594 88.0909 30.9839 89.1009C30.5735 89.7739 30.2588 90.5007 30.049 91.2605C29.9104 91.7998 29.8952 92.1073 29.933 92.1173C30.0439 92.1501 30.2934 90.938 31.3745 89.3453C32.0092 88.4265 32.7838 87.6128 33.6702 86.9337C33.8913 86.7485 34.1489 86.612 34.4262 86.533C34.5546 86.5077 34.6868 86.5089 34.8146 86.5367C34.9425 86.5644 35.0633 86.618 35.1696 86.6943C35.4285 86.8779 35.6522 87.1066 35.8299 87.3696C36.0283 87.6523 36.1972 87.9546 36.3339 88.2718C36.5957 88.9267 36.8072 89.6007 36.9664 90.2878C37.0589 90.5325 37.0525 90.8036 36.9488 91.0438C36.7886 91.2522 36.5647 91.4026 36.3112 91.4722C36.0242 91.5654 35.7323 91.6428 35.4368 91.7041C35.147 91.7696 34.8597 91.82 34.5799 91.8628C34.023 91.951 33.4989 92.0014 33.015 92.0342C32.0499 92.0997 31.251 92.1123 30.7143 92.14C30.1775 92.1677 29.8574 92.2207 29.8549 92.266Z" fill="#E0E0E0"/>
<path d="M30.2228 92.43C30.2228 92.3846 29.9002 92.2888 29.303 92.1528C28.7057 92.0167 27.8338 91.8378 26.783 91.5832C25.5467 91.2981 24.335 90.9156 23.1592 90.4392C22.8366 90.3172 22.5309 90.1546 22.2495 89.9553C22.1297 89.8704 22.0299 89.7603 21.9571 89.6328C21.8991 89.5194 21.8814 89.3896 21.9067 89.2648C21.9444 89.0986 22.0028 88.9377 22.0806 88.786C22.1638 88.6071 22.2495 88.4257 22.3326 88.2442C22.5018 87.8837 22.6955 87.5351 22.9122 87.2009C23.1254 86.8765 23.3795 86.5809 23.6682 86.3215C23.9299 86.0727 24.2359 85.8752 24.5704 85.7393C24.8689 85.6223 25.1979 85.6081 25.5053 85.699C25.8162 85.8086 26.1017 85.98 26.3445 86.203C27.2903 87.0313 28.1081 87.9952 28.7712 89.0632C29.2184 89.7868 29.5803 90.5597 29.8498 91.3665C30.0388 91.9436 30.1144 92.2737 30.1648 92.2662C30.2152 92.2586 30.2127 91.9159 30.0968 91.3035C29.915 90.4371 29.6041 89.6029 29.1745 88.8289C28.5364 87.6772 27.715 86.6371 26.7426 85.7494C26.444 85.4605 26.0876 85.2381 25.6968 85.0967C25.258 84.9573 24.7852 84.9689 24.3537 85.1295C24.1426 85.2054 23.9413 85.3061 23.7539 85.4294C23.5709 85.5506 23.3966 85.6845 23.2323 85.8301C22.9042 86.1268 22.6169 86.4658 22.378 86.8381C22.1456 87.1975 21.9376 87.5721 21.7555 87.9595L21.5035 88.5164C21.4021 88.7205 21.3291 88.9376 21.2868 89.1615C21.2394 89.4251 21.283 89.697 21.4103 89.9326C21.528 90.1392 21.6897 90.3173 21.8841 90.4543C22.2114 90.6814 22.5673 90.8644 22.9425 90.9986C24.1597 91.4615 25.4176 91.8091 26.6998 92.0368C27.7859 92.2384 28.6705 92.3418 29.2803 92.4048C29.8901 92.4678 30.2152 92.4728 30.2228 92.43Z" fill="#FAFAFA"/>
<path d="M46.6827 98.791L20.6014 98.9958L20.5432 91.5822L46.6245 91.3774L46.6827 98.791Z" fill="#E0E0E0"/>
<path d="M37.0881 98.8639L13.5141 99.0491L13.4559 91.6354L37.0299 91.4503L37.0881 98.8639Z" fill="#EBEBEB"/>
<path d="M20.6949 91.5881L20.8587 99.0347L23.608 98.9768L23.4165 91.5654L20.6949 91.5881Z" fill="#FAFAFA"/>
<path d="M40.2274 91.4723L40.4946 98.8535L43.5161 98.8283L43.3548 91.4119L40.2274 91.4723Z" fill="#FAFAFA"/>
<path d="M19.9054 120.843L11.8013 120.906L11.7209 110.676L19.825 110.612L19.9054 120.843Z" fill="#EBEBEB"/>
<path d="M14.8937 110.985L15.0373 120.888L16.32 120.881L16.0453 110.975L14.8937 110.985Z" fill="#FAFAFA"/>
<path d="M24.4823 110.909L19.8329 110.944L11.7285 111.01L19.8405 112.076L19.911 120.851L24.5579 120.815L24.4823 110.909Z" fill="#E0E0E0"/>
<path d="M21.9522 110.929L22.1361 120.835L23.5171 120.823L23.2903 110.919L21.9522 110.929Z" fill="#FAFAFA"/>
<path d="M18.2703 107.915C18.2703 107.998 18.8121 108.124 19.7244 108.167C20.2753 108.188 20.8263 108.127 21.3599 107.988C21.5754 107.932 21.7644 107.802 21.8941 107.62C21.9674 107.505 22.0068 107.371 22.0075 107.235C22.0075 107.129 21.9956 107.023 21.9722 106.92C21.8994 106.575 21.7965 106.238 21.6648 105.912C21.5894 105.734 21.4948 105.565 21.3825 105.408C21.2664 105.237 21.1183 105.091 20.9466 104.977C20.8455 104.91 20.7319 104.865 20.6128 104.844C20.4936 104.823 20.3714 104.826 20.2536 104.853C20.0668 104.909 19.8947 105.006 19.7496 105.136C19.3223 105.488 18.9627 105.915 18.6886 106.396C18.2325 107.23 18.2376 107.832 18.3157 107.842C18.3938 107.852 18.5677 107.338 19.0717 106.648C19.3665 106.252 19.7181 105.902 20.115 105.609C20.1964 105.54 20.2918 105.49 20.3947 105.461C20.4311 105.455 20.4682 105.457 20.5038 105.467C20.5394 105.476 20.5726 105.493 20.6013 105.516C20.6999 105.589 20.7852 105.679 20.8533 105.781C20.9359 105.9 21.006 106.028 21.0625 106.161C21.1792 106.45 21.2735 106.748 21.3447 107.051C21.3825 107.192 21.375 107.255 21.3624 107.27C21.3112 107.333 21.2415 107.378 21.1633 107.399C20.9163 107.48 20.6636 107.543 20.4073 107.588C20.1553 107.633 19.9235 107.663 19.7067 107.686C18.8348 107.777 18.2728 107.817 18.2703 107.915Z" fill="#E0E0E0"/>
<path d="M18.4394 108.001C18.4545 107.905 17.8472 107.749 16.8921 107.497C16.34 107.35 15.7986 107.166 15.2717 106.945C15.1388 106.892 15.0128 106.824 14.8962 106.741C14.8623 106.716 14.834 106.684 14.8131 106.648C14.8131 106.628 14.8131 106.628 14.8131 106.59C14.8621 106.446 14.9228 106.306 14.9945 106.172C15.0694 106.015 15.1535 105.862 15.2465 105.715C15.3348 105.581 15.4388 105.457 15.5565 105.348C15.6594 105.25 15.7789 105.171 15.9093 105.116C16.0098 105.073 16.1217 105.066 16.2268 105.096C16.3472 105.136 16.4578 105.202 16.5519 105.287C16.9772 105.65 17.3504 106.07 17.6607 106.534C18.1924 107.336 18.3033 107.951 18.4167 107.936C18.457 107.936 18.4847 107.767 18.452 107.477C18.3936 107.067 18.2649 106.669 18.0715 106.303C17.7885 105.752 17.4125 105.255 16.9601 104.833C16.8084 104.684 16.6261 104.57 16.4259 104.498C16.1904 104.42 15.9353 104.425 15.7026 104.511C15.5922 104.548 15.4872 104.6 15.3902 104.665C15.3015 104.724 15.2173 104.79 15.1382 104.861C14.9765 105.01 14.835 105.18 14.7173 105.365C14.6072 105.536 14.5086 105.713 14.4225 105.897C14.3822 105.985 14.3444 106.071 14.304 106.149C14.2521 106.257 14.2148 106.371 14.1932 106.489C14.1672 106.647 14.1938 106.809 14.2688 106.95C14.3356 107.066 14.4267 107.166 14.5359 107.243C14.698 107.351 14.8744 107.435 15.06 107.495C15.6271 107.703 16.214 107.852 16.8115 107.941C17.7968 108.079 18.4243 108.072 18.4394 108.001Z" fill="#FAFAFA"/>
<path d="M25.9526 110.889L14.0408 110.983L14.0142 107.596L25.926 107.502L25.9526 110.889Z" fill="#E0E0E0"/>
<path d="M21.5723 110.924L10.8046 111.009L10.778 107.622L21.5457 107.537L21.5723 110.924Z" fill="#EBEBEB"/>
<path d="M14.0873 107.605L14.1629 111.005L15.4179 110.98L15.3297 107.595L14.0873 107.605Z" fill="#FAFAFA"/>
<path d="M23.0107 107.55L23.1317 110.922L24.5126 110.912L24.437 107.522L23.0107 107.55Z" fill="#FAFAFA"/>
<path d="M174.108 120.808L159.573 120.923L159.429 102.575L173.964 102.461L174.108 120.808Z" fill="#EBEBEB"/>
<path d="M165.119 103.112L165.376 120.878L167.675 120.861L167.181 103.097L165.119 103.112Z" fill="#FAFAFA"/>
<path d="M182.313 102.979L173.975 103.044L159.439 103.158L173.99 105.073L174.113 120.81L182.449 120.745L182.313 102.979Z" fill="#E0E0E0"/>
<path d="M177.775 103.014L178.105 120.778L180.579 120.76L180.176 102.996L177.775 103.014Z" fill="#FAFAFA"/>
<path d="M171.175 97.6087C171.175 97.6994 171.427 97.7926 171.863 97.8833C172.942 98.0868 174.044 98.1461 175.139 98.0597C175.391 98.0371 175.643 98.0093 175.895 97.964C176.175 97.9217 176.453 97.8611 176.726 97.7825C176.898 97.73 177.062 97.6581 177.218 97.5683C177.42 97.4528 177.593 97.2914 177.722 97.0971C177.858 96.8803 177.932 96.63 177.936 96.3739C177.937 96.1786 177.914 95.9839 177.868 95.7943C177.738 95.1744 177.553 94.5672 177.316 93.9798C177.18 93.6605 177.011 93.3564 176.812 93.0726C176.705 92.9296 176.59 92.7933 176.467 92.6644C176.331 92.522 176.178 92.3975 176.01 92.294C175.825 92.1737 175.619 92.0883 175.403 92.042C175.175 91.9964 174.941 92.0016 174.715 92.0571C174.367 92.1571 174.045 92.3346 173.775 92.5762C173.005 93.2161 172.359 93.9926 171.87 94.8669C171.542 95.4482 171.313 96.0801 171.192 96.7367C171.119 97.2004 171.157 97.4675 171.24 97.4927C171.434 97.5406 171.744 96.5881 172.651 95.3759C173.184 94.6766 173.813 94.0571 174.521 93.5363C174.66 93.4193 174.822 93.3334 174.997 93.2843C175.055 93.2764 175.113 93.2804 175.168 93.296C175.224 93.3116 175.275 93.3385 175.32 93.375C175.398 93.4296 175.469 93.4921 175.534 93.5615C175.605 93.6396 175.683 93.7379 175.753 93.8337C175.898 94.0435 176.021 94.2672 176.121 94.5015C176.327 95.0171 176.495 95.5469 176.625 96.0866C176.652 96.1734 176.668 96.2631 176.673 96.3537C176.673 96.4117 176.673 96.4167 176.673 96.4293C176.589 96.5302 176.475 96.6024 176.348 96.6359C176.129 96.7132 175.906 96.7788 175.68 96.8325C175.451 96.8905 175.224 96.9358 175.005 96.9787C174.564 97.0593 174.143 97.1173 173.745 97.1626C172.969 97.2508 172.324 97.3037 171.878 97.3718C171.432 97.4398 171.177 97.5179 171.175 97.6087Z" fill="#E0E0E0"/>
<path d="M171.475 97.7396C171.507 97.5531 170.419 97.2507 168.703 96.7795C167.717 96.5106 166.751 96.1738 165.812 95.7715C165.579 95.6801 165.359 95.559 165.157 95.4111C165.102 95.3734 165.056 95.3234 165.023 95.2649C165.023 95.2423 165.023 95.2649 165.023 95.2019C165.052 95.1007 165.091 95.0027 165.139 94.9096L165.349 94.4737C165.482 94.195 165.633 93.9248 165.8 93.6647C165.953 93.427 166.136 93.2094 166.344 93.0171C166.441 92.9251 166.546 92.8409 166.656 92.7651C166.749 92.7001 166.848 92.6468 166.954 92.6063C167.12 92.5348 167.306 92.5215 167.48 92.5685C167.689 92.6397 167.88 92.7529 168.042 92.9012C168.802 93.5442 169.471 94.2877 170.031 95.1112C170.991 96.5325 171.208 97.6312 171.407 97.601C171.492 97.601 171.553 97.2961 171.497 96.7719C171.401 96.0305 171.176 95.3116 170.832 94.6475C170.328 93.653 169.654 92.7542 168.841 91.9915C168.562 91.7184 168.228 91.508 167.861 91.374C167.423 91.2312 166.95 91.2392 166.518 91.3967C166.316 91.4672 166.124 91.562 165.946 91.679C165.779 91.7867 165.62 91.9072 165.472 92.0393C165.182 92.3029 164.927 92.6037 164.716 92.9339C164.517 93.2434 164.338 93.5658 164.182 93.8991L163.97 94.3628C163.874 94.5617 163.805 94.7728 163.766 94.9903C163.716 95.2883 163.767 95.5944 163.912 95.8597C164.037 96.0773 164.209 96.2642 164.416 96.4065C164.712 96.6096 165.034 96.7716 165.374 96.8878C166.394 97.2599 167.451 97.5234 168.526 97.6741C169.238 97.7832 169.956 97.8446 170.676 97.858C171.172 97.8732 171.462 97.8303 171.475 97.7396Z" fill="#FAFAFA"/>
<path d="M184.954 102.958L163.59 103.126L163.543 97.0529L184.907 96.8851L184.954 102.958Z" fill="#E0E0E0"/>
<path d="M177.102 103.018L157.789 103.17L157.741 97.0971L177.054 96.9454L177.102 103.018Z" fill="#EBEBEB"/>
<path d="M163.67 97.0516L163.804 103.153L166.057 103.105L165.9 97.0339L163.67 97.0516Z" fill="#FAFAFA"/>
<path d="M179.672 96.9558L179.889 103.004L182.366 102.984L182.233 96.908L179.672 96.9558Z" fill="#FAFAFA"/>
<path d="M155.329 83.991C160.009 79.204 167.338 77.1909 173.805 78.9218C168.29 82.6782 161.784 84.7111 155.111 84.7623" fill="#27847F"/>
<path d="M161.597 61.8007C160.826 56.3553 162.941 50.2433 167.018 46.2734C167.153 51.6705 164.868 57.7422 161.597 61.8007Z" fill="#27847F"/>
<path d="M158.337 72.0843C161.285 66.4917 165.975 62.0125 171.698 59.3254C169.996 65.5933 164.634 70.7216 158.296 72.1434" fill="#27847F"/>
<path d="M157.662 74.0813C160.95 74.1726 164.28 74.0571 167.459 73.2158C170.639 72.3745 173.684 70.7565 175.792 68.238C169.357 68.2605 163.073 70.1779 157.722 73.7507" fill="#27847F"/>
<path d="M159.334 67.5337C157.665 61.2765 154.91 56.9492 149.994 53.4443C149.617 56.5204 150.351 59.6298 152.064 62.2128C153.776 64.7958 156.354 66.6826 159.334 67.5337Z" fill="#27847F"/>
<path d="M146.919 78.3223C146.907 76.4974 147.435 74.7096 148.436 73.1836C149.436 71.6576 150.866 70.4615 152.545 69.7456C152.276 72.9709 149.733 76.7123 146.919 78.3223Z" fill="#27847F"/>
<path d="M145.358 73.0464C144.984 67.8213 141.272 62.986 136.319 61.2766C137.445 66.5043 140.466 70.8558 145.358 73.0464Z" fill="#27847F"/>
<path d="M147.715 82.4131C146.556 80.7547 144.664 79.7253 142.705 79.2092C140.745 78.6932 138.7 78.6529 136.676 78.6099C138.055 80.107 139.743 81.2876 141.622 82.0703C143.501 82.8531 145.527 83.2194 147.562 83.1441" fill="#27847F"/>
<path d="M150.067 95.7417C146.376 94.6035 142.393 94.8891 138.903 96.5424C135.413 98.1957 132.669 101.097 131.212 104.673C138.06 103.378 144.82 100.332 150.067 95.7417Z" fill="#27847F"/>
<path d="M157.582 91.1084C156.445 94.4708 156.662 98.5374 159.194 101.435C159.698 99.7005 159.815 97.8767 159.536 96.0923C159.257 94.3079 158.59 92.6065 157.582 91.1084Z" fill="#27847F"/>
<path d="M162.022 89.2402C162.206 91.4078 162.946 93.4914 164.17 95.2898C165.394 97.0882 167.061 98.5408 169.01 99.5075C169.101 99.5657 169.203 99.6045 169.309 99.6216C169.415 99.6387 169.524 99.6337 169.628 99.607C169.937 99.4833 169.964 99.0694 169.927 98.7308C169.432 94.4303 166.239 90.2562 162.022 89.2402Z" fill="#27847F"/>
<path d="M164.927 88.8023C165.893 89.8449 167.062 90.6782 168.363 91.2505C169.663 91.8227 171.068 92.1218 172.489 92.1291C173.91 92.1364 175.317 91.8518 176.623 91.293C177.93 90.7341 179.108 89.9129 180.084 88.8802C175.267 88.3426 169.706 88.0013 164.927 88.8023Z" fill="#27847F"/>
<path d="M165.648 50.2864C165.637 50.335 165.623 50.3826 165.605 50.4288C165.567 50.5283 165.519 50.6627 165.457 50.8347C165.32 51.2002 165.126 51.7243 164.876 52.3963C164.626 53.0682 164.317 53.9014 163.97 54.869L163.414 56.4145C163.223 56.9521 163.022 57.5487 162.812 58.1589C161.957 60.5994 161.011 63.5344 159.987 66.7866C158.963 70.0388 157.926 73.6593 156.888 77.4625C155.851 81.2657 154.956 84.9184 154.184 88.2485C153.413 91.5787 152.787 94.5917 152.322 97.1343C152.202 97.7686 152.088 98.3725 151.98 98.9459C151.881 99.5184 151.789 100.061 151.711 100.559C151.537 101.569 151.389 102.44 151.287 103.158C151.185 103.875 151.093 104.418 151.034 104.803C151.005 104.983 150.98 105.125 150.964 105.23C150.958 105.279 150.949 105.328 150.935 105.375C150.931 105.326 150.931 105.276 150.935 105.227C150.948 105.122 150.964 104.98 150.988 104.797C151.04 104.41 151.112 103.856 151.206 103.147C151.3 102.437 151.435 101.556 151.599 100.542C151.682 100.034 151.768 99.4915 151.867 98.9163C151.967 98.3411 152.08 97.7391 152.195 97.1021C152.647 94.554 153.27 91.541 154.02 88.2028C154.77 84.8646 155.689 81.2146 156.708 77.406C157.727 73.5975 158.807 69.9931 159.823 66.7275C160.839 63.4619 161.815 60.5456 162.686 58.1078C162.901 57.4986 163.106 56.9189 163.301 56.3688L163.871 54.826C164.228 53.8611 164.538 53.0333 164.806 52.3613C165.075 51.6894 165.277 51.176 165.419 50.8132L165.583 50.4127C165.602 50.3692 165.623 50.327 165.648 50.2864Z" fill="#141A1E"/>
<path d="M139.176 64.0693C139.206 64.0922 139.234 64.1183 139.259 64.1473L139.49 64.3892C139.692 64.6042 139.982 64.9267 140.345 65.346C141.379 66.5393 142.327 67.8039 143.183 69.1304C144.458 71.0984 145.453 73.2342 146.14 75.4763C146.946 78.0001 147.43 80.8733 147.919 83.8729C148.9 89.88 150.102 95.261 150.972 99.1529C151.41 101.091 151.779 102.66 152.015 103.762C152.133 104.3 152.228 104.717 152.284 105.015C152.314 105.152 152.335 105.259 152.354 105.343C152.363 105.38 152.368 105.418 152.37 105.456C152.354 105.42 152.343 105.383 152.335 105.346C152.314 105.265 152.284 105.157 152.249 105.023C152.174 104.727 152.072 104.311 151.937 103.779C151.668 102.682 151.3 101.115 150.838 99.1824C149.935 95.2986 148.712 89.9177 147.731 83.9024C147.239 80.9029 146.753 78.0404 145.97 75.5246C145.291 73.2941 144.311 71.1664 143.057 69.2003C142.214 67.8722 141.284 66.6009 140.275 65.3944C139.92 64.9644 139.638 64.6365 139.444 64.4134C139.356 64.3085 139.283 64.2252 139.229 64.158C139.209 64.13 139.191 64.1004 139.176 64.0693Z" fill="#141A1E"/>
<path d="M166.365 88.5951C166.31 88.6145 166.252 88.6254 166.193 88.6274L165.693 88.6811L165.333 88.7187L164.908 88.7806C164.602 88.8263 164.253 88.8719 163.874 88.9553L163.274 89.0762L162.635 89.2375C162.188 89.3369 161.729 89.5063 161.237 89.6487C160.185 90.0132 159.165 90.4626 158.186 90.9926C157.215 91.5364 156.298 92.1737 155.45 92.8955C155.083 93.2125 154.733 93.5489 154.402 93.9035C154.106 94.2064 153.829 94.5268 153.571 94.863C153.351 95.1339 153.146 95.4165 152.956 95.7096C152.802 95.9278 152.661 96.1548 152.534 96.3897L152.279 96.8224C152.252 96.8749 152.218 96.9237 152.179 96.9675C152.193 96.9098 152.216 96.8546 152.246 96.8036L152.472 96.3547C152.587 96.115 152.72 95.8841 152.87 95.664C153.052 95.3626 153.251 95.0718 153.467 94.7931C153.721 94.4494 153.996 94.1209 154.289 93.8094C154.62 93.447 154.971 93.1034 155.34 92.78C156.191 92.043 157.115 91.3955 158.098 90.8475C159.086 90.3121 160.118 89.8625 161.183 89.5036C161.68 89.3584 162.145 89.1999 162.597 89.1058L163.245 88.9526L163.849 88.8451C164.234 88.7671 164.586 88.7322 164.895 88.6946L165.325 88.6462L165.688 88.6274L166.191 88.5951C166.249 88.5874 166.307 88.5874 166.365 88.5951Z" fill="#141A1E"/>
<path d="M167.739 64.1821C167.637 64.3055 167.522 64.418 167.397 64.5181L166.406 65.3782C165.562 66.0985 164.39 67.0822 163.089 68.1627C161.788 69.2432 160.6 70.2135 159.737 70.9069L158.708 71.7133C158.587 71.8167 158.456 71.9068 158.315 71.9821C158.419 71.8585 158.535 71.7459 158.662 71.6461L159.654 70.786C160.498 70.0657 161.67 69.0819 162.971 68.0015C164.272 66.921 165.457 65.9534 166.32 65.2599L167.349 64.4536C167.471 64.3517 167.601 64.2608 167.739 64.1821Z" fill="#141A1E"/>
<path d="M168.924 70.5575C168.924 70.6059 166.408 71.3961 163.28 72.3234C160.151 73.2506 157.59 73.9602 157.576 73.9118C157.563 73.8635 160.092 73.0706 163.22 72.146C166.349 71.2214 168.908 70.5091 168.924 70.5575Z" fill="#141A1E"/>
<path d="M159.581 68.0202C159.48 67.9084 159.39 67.7869 159.313 67.6573L158.646 66.6413C158.082 65.7839 157.278 64.6174 156.327 63.373C155.375 62.1286 154.461 61.0481 153.787 60.2767C153.469 59.9111 153.201 59.6047 152.98 59.3628C152.88 59.2552 152.79 59.1382 152.711 59.0134C152.835 59.0984 152.947 59.1986 153.045 59.3118C153.249 59.5134 153.539 59.8117 153.891 60.188C154.59 60.9406 155.526 62.0157 156.48 63.2628C157.434 64.5099 158.221 65.6952 158.762 66.5688C159.03 67.0069 159.243 67.3751 159.38 67.6197C159.463 67.7448 159.53 67.8792 159.581 68.0202Z" fill="#141A1E"/>
<path d="M150.798 71.5574C150.621 71.8952 150.423 72.2211 150.204 72.533C149.825 73.127 149.311 73.9522 148.782 74.8848C148.252 75.8175 147.804 76.683 147.484 77.3038C147.327 77.6514 147.147 77.9881 146.946 78.3118C147.051 77.9407 147.191 77.5806 147.365 77.2366C147.653 76.5916 148.086 75.7154 148.618 74.7746C149.15 73.8339 149.693 73.0195 150.091 72.4417C150.298 72.125 150.534 71.8288 150.798 71.5574Z" fill="#141A1E"/>
<path d="M147.777 82.5826C147.763 82.6068 147.282 82.3703 146.492 82.0155C145.702 81.6607 144.611 81.2092 143.353 80.7576C142.095 80.3061 140.952 79.997 140.114 79.7847C139.275 79.5723 138.751 79.4514 138.77 79.4245C138.897 79.4214 139.023 79.435 139.146 79.4648C139.388 79.4998 139.732 79.5643 140.157 79.6556C141.265 79.8983 142.358 80.2089 143.428 80.5856C144.498 80.9593 145.545 81.3973 146.562 81.8972C146.952 82.0908 147.261 82.2547 147.473 82.3784C147.582 82.4342 147.684 82.5028 147.777 82.5826Z" fill="#141A1E"/>
<path d="M150.158 95.7634C150.109 95.7873 150.056 95.8045 150.002 95.8145L149.545 95.9301L147.863 96.3198C146.008 96.7092 144.174 97.1936 142.369 97.7712C140.571 98.3749 138.85 99.1867 137.241 100.19C136.628 100.58 136.149 100.924 135.827 101.174C135.665 101.309 135.496 101.435 135.319 101.55C135.319 101.55 135.354 101.505 135.432 101.429C135.51 101.354 135.625 101.246 135.784 101.117C136.226 100.745 136.689 100.398 137.171 100.08C138.771 99.0411 140.497 98.2101 142.307 97.6072C144.119 97.0242 145.965 96.5556 147.836 96.2042L149.532 95.8521C149.738 95.807 149.947 95.7774 150.158 95.7634Z" fill="#141A1E"/>
<path d="M158.713 99.0103C158.665 99.0103 158.364 97.2444 158.041 95.0485C157.719 92.8526 157.504 91.0652 157.552 91.0572C157.6 91.0491 157.901 92.8257 158.224 95.0216C158.547 97.2175 158.764 99.0049 158.713 99.0103Z" fill="#141A1E"/>
<path d="M167.623 95.7769C167.334 95.4768 167.065 95.1581 166.817 94.8227C166.336 94.2233 165.669 93.3982 164.914 92.5005C164.159 91.6028 163.463 90.8018 162.955 90.2239C162.664 89.9251 162.394 89.6063 162.148 89.2698C162.247 89.3299 162.338 89.4031 162.417 89.4875C162.573 89.638 162.791 89.8584 163.059 90.1379C163.597 90.6943 164.307 91.4818 165.065 92.3822C165.822 93.2826 166.473 94.1212 166.93 94.7421C167.158 95.0539 167.338 95.3092 167.467 95.4866C167.533 95.5754 167.586 95.6731 167.623 95.7769Z" fill="#141A1E"/>
<path d="M144.046 104.039V108.442H145.148L149.059 120.792H157.738L161.527 108.563L162.995 108.442V104.039H144.046Z" fill="#214B5F"/>
<path d="M162.261 108.563C162.261 108.614 158.431 108.657 153.706 108.657C148.981 108.657 145.148 108.614 145.148 108.563C145.148 108.512 148.978 108.471 153.706 108.471C158.433 108.471 162.261 108.512 162.261 108.563Z" fill="#141A1E"/>
<path d="M168.502 80.2471C168.321 80.3126 168.135 80.363 167.946 80.3976L166.425 80.7658C165.14 81.083 163.377 81.5721 161.466 82.2065C159.555 82.8408 157.856 83.5315 156.628 84.0556L155.192 84.6819C155.019 84.7685 154.839 84.8413 154.655 84.8996C154.814 84.7908 154.982 84.6964 155.157 84.6174C155.485 84.4454 155.964 84.2115 156.571 83.9347C159.717 82.4995 163.003 81.3942 166.376 80.6368C167.021 80.4943 167.548 80.3895 167.914 80.3277C168.107 80.2846 168.304 80.2576 168.502 80.2471Z" fill="#141A1E"/>
<path d="M159.38 115.422C159.38 115.473 156.692 115.513 153.378 115.513C150.064 115.513 147.373 115.473 147.373 115.422C147.373 115.371 150.061 115.33 153.378 115.33C156.695 115.33 159.38 115.371 159.38 115.422Z" fill="#FAFAFA"/>
<path d="M159.718 114.398C159.718 114.449 156.869 114.489 153.356 114.489C149.843 114.489 146.992 114.449 146.992 114.398C146.992 114.347 149.841 114.306 153.356 114.306C156.872 114.306 159.718 114.349 159.718 114.398Z" fill="#FAFAFA"/>
<path d="M36.2966 94.417L50.3142 78.6689C50.8663 78.0489 51.5422 77.5516 52.2984 77.209C53.0546 76.8664 53.8742 76.6861 54.7043 76.6799L100.853 76.3456C101.637 76.3398 102.415 76.4894 103.141 76.7859C103.867 77.0824 104.527 77.5199 105.082 78.073C105.638 78.6261 106.079 79.2839 106.379 80.0083C106.679 80.7328 106.833 81.5096 106.831 82.2937L106.753 114.971C106.751 115.752 106.596 116.524 106.295 117.244C105.995 117.964 105.555 118.618 105.002 119.168C104.448 119.718 103.792 120.153 103.07 120.449C102.348 120.745 101.574 120.896 100.794 120.892L54.8053 120.699C53.9559 120.697 53.1169 120.512 52.3449 120.158C51.573 119.803 50.8862 119.287 50.331 118.645L36.2293 102.245C35.2893 101.154 34.7779 99.7582 34.7903 98.3182C34.8027 96.8782 35.338 95.4917 36.2966 94.417ZM44.097 100.094C44.4615 100.991 45.0837 101.759 45.885 102.303C46.6864 102.846 47.6308 103.139 48.5989 103.146C49.567 103.152 50.5153 102.871 51.3238 102.339C52.1323 101.807 52.7648 101.046 53.1412 100.154C53.5176 99.2624 53.6211 98.2788 53.4385 97.3281C53.256 96.3774 52.7955 95.5021 52.1155 94.813C51.4355 94.124 50.5664 93.652 49.6182 93.4569C48.6699 93.2618 47.6851 93.3522 46.7883 93.7168C45.5879 94.2057 44.6304 95.1508 44.1259 96.3447C43.6214 97.5386 43.611 98.8839 44.097 100.085V100.094Z" fill="#27847F"/>
<g opacity="0.4">
<path d="M36.2966 94.417L50.3142 78.6689C50.8663 78.0489 51.5422 77.5516 52.2984 77.209C53.0546 76.8664 53.8742 76.6861 54.7043 76.6799L100.853 76.3456C101.637 76.3398 102.415 76.4894 103.141 76.7859C103.867 77.0824 104.527 77.5199 105.082 78.073C105.638 78.6261 106.079 79.2839 106.379 80.0083C106.679 80.7328 106.833 81.5096 106.831 82.2937L106.753 114.971C106.751 115.752 106.596 116.524 106.295 117.244C105.995 117.964 105.555 118.618 105.002 119.168C104.448 119.718 103.792 120.153 103.07 120.449C102.348 120.745 101.574 120.896 100.794 120.892L54.8053 120.699C53.9559 120.697 53.1169 120.512 52.3449 120.158C51.573 119.803 50.8862 119.287 50.331 118.645L36.2293 102.245C35.2893 101.154 34.7779 99.7582 34.7903 98.3182C34.8027 96.8782 35.338 95.4917 36.2966 94.417ZM44.097 100.094C44.4615 100.991 45.0837 101.759 45.885 102.303C46.6864 102.846 47.6308 103.139 48.5989 103.146C49.567 103.152 50.5153 102.871 51.3238 102.339C52.1323 101.807 52.7648 101.046 53.1412 100.154C53.5176 99.2624 53.6211 98.2788 53.4385 97.3281C53.256 96.3774 52.7955 95.5021 52.1155 94.813C51.4355 94.124 50.5664 93.652 49.6182 93.4569C48.6699 93.2618 47.6851 93.3522 46.7883 93.7168C45.5879 94.2057 44.6304 95.1508 44.1259 96.3447C43.6214 97.5386 43.611 98.8839 44.097 100.085V100.094Z" fill="black"/>
</g>
<path d="M33.868 94.417L47.892 78.6689C48.4442 78.0491 49.1202 77.5519 49.8763 77.2093C50.6324 76.8668 51.452 76.6864 52.2821 76.6799L98.4308 76.3456C99.215 76.3395 99.9926 76.489 100.719 76.7854C101.445 77.0818 102.105 77.5192 102.661 78.0723C103.217 78.6255 103.657 79.2834 103.957 80.008C104.257 80.7326 104.411 81.5095 104.408 82.2937L104.333 114.971C104.331 115.753 104.174 116.527 103.872 117.249C103.57 117.97 103.129 118.624 102.573 119.175C102.018 119.725 101.359 120.16 100.635 120.455C99.9103 120.749 99.1349 120.898 98.353 120.892L52.3662 120.699C51.5169 120.696 50.6779 120.512 49.9061 120.157C49.1342 119.803 48.4474 119.287 47.892 118.645L33.7923 102.245C32.8531 101.153 32.3429 99.7568 32.3568 98.3166C32.3708 96.8764 32.9078 95.4905 33.868 94.417ZM41.6664 100.094C42.0308 100.991 42.653 101.759 43.4544 102.303C44.2557 102.846 45.2002 103.139 46.1682 103.146C47.1363 103.152 48.0846 102.872 48.8931 102.339C49.7017 101.807 50.3341 101.046 50.7106 100.154C51.087 99.2624 51.1904 98.2789 51.0079 97.3281C50.8253 96.3774 50.3649 95.5021 49.6849 94.813C49.0048 94.124 48.1357 93.652 47.1875 93.4569C46.2393 93.2618 45.2544 93.3522 44.3576 93.7168C43.1572 94.2057 42.1997 95.1508 41.6952 96.3447C41.1907 97.5386 41.1803 98.8839 41.6664 100.085V100.094Z" fill="#27847F"/>
<path d="M89.0513 93.3215C89.0155 89.3604 86.5745 86.8646 83.1515 86.8983C79.7286 86.9319 77.3674 89.4361 77.4032 93.4288C77.4389 97.4215 79.8505 99.8857 83.2714 99.8541C86.6922 99.8226 89.0891 97.2827 89.0513 93.3215ZM80.7609 93.3993C80.7378 90.8763 81.6987 89.6631 83.1768 89.6505C84.6191 89.6358 85.6388 90.8679 85.662 93.3531C85.6851 95.8383 84.6885 97.0872 83.2461 97.1019C81.768 97.1145 80.7841 95.9161 80.7609 93.3993ZM69.157 87.302L65.1622 87.3398L81.4253 110.678L85.4202 110.64L69.157 87.302ZM73.1771 104.558C73.1392 100.596 70.7003 98.1006 67.3089 98.1322C63.8859 98.1658 61.4932 100.706 61.529 104.665C61.5647 108.624 64.0058 111.111 67.4308 111.075C70.8096 111.048 73.2128 108.508 73.1771 104.558ZM64.9204 104.633C64.8972 102.15 65.8581 100.899 67.3362 100.886C68.7785 100.872 69.7962 102.07 69.8193 104.589C69.8424 107.108 68.8479 108.323 67.4056 108.338C65.9275 108.342 64.9435 107.108 64.9225 104.623L64.9204 104.633Z" fill="white"/>
<path d="M35.4026 104.137C35.2352 104.226 35.0804 104.337 34.9422 104.467C34.6541 104.696 34.2336 105.041 33.7017 105.497C33.1697 105.954 32.5222 106.517 31.7947 107.196C31.0672 107.875 30.2514 108.668 29.4083 109.608C28.4814 110.626 27.6423 111.721 26.9 112.881L26.6014 113.359L26.3197 113.857C26.1229 114.198 25.9446 114.548 25.7856 114.908C25.4319 115.671 25.2278 116.495 25.1843 117.335C25.1708 117.783 25.2362 118.231 25.3777 118.657C25.5253 119.098 25.7614 119.503 26.0716 119.849C26.7076 120.551 27.5498 121.032 28.4769 121.224C29.4172 121.41 30.3869 121.387 31.3174 121.157C32.252 120.931 33.1573 120.597 34.015 120.162C35.7006 119.303 37.2295 118.166 38.5375 116.798C39.1611 116.158 39.7446 115.48 40.2847 114.767C40.8118 114.076 41.3136 113.389 41.7902 112.705C43.6824 109.971 45.1542 107.343 46.0793 104.993C46.3106 104.406 46.5104 103.843 46.6828 103.3C46.7669 103.029 46.8468 102.764 46.912 102.501C46.9837 102.247 47.035 101.988 47.0654 101.725C47.1386 101.228 47.0141 100.721 46.7185 100.315C46.4639 99.988 46.1165 99.7461 45.7219 99.6207C45.559 99.5668 45.3915 99.5281 45.2215 99.505C45.0721 99.4892 44.9216 99.4856 44.7716 99.4945C44.5364 99.5058 44.3047 99.5562 44.0861 99.6438C43.9533 99.6994 43.8299 99.7753 43.7203 99.8688C43.6488 99.9339 43.6173 99.9697 43.6236 99.9781C43.6299 99.9865 43.674 99.9634 43.7539 99.915C43.8698 99.8444 43.9942 99.7886 44.124 99.7489C44.3353 99.685 44.5551 99.6538 44.7758 99.6564C44.9166 99.6578 45.0571 99.6691 45.1963 99.69C45.3519 99.7202 45.5045 99.7638 45.6525 99.8204C45.9962 99.9467 46.2947 100.172 46.5104 100.468C46.7509 100.826 46.8415 101.264 46.7627 101.687C46.7279 101.935 46.673 102.179 46.5987 102.417C46.5293 102.669 46.4431 102.926 46.3548 103.191C46.1712 103.721 45.9609 104.273 45.724 104.848C44.7716 107.139 43.283 109.728 41.3823 112.417C40.9057 113.09 40.4032 113.767 39.8747 114.45C39.3429 115.143 38.7692 115.803 38.157 116.426C36.8867 117.746 35.406 118.846 33.7753 119.681C32.9526 120.097 32.0849 120.417 31.1891 120.636C30.3358 120.849 29.446 120.875 28.582 120.709C27.7647 120.543 27.0204 120.123 26.4542 119.511C25.9294 118.917 25.6524 118.145 25.6805 117.353C25.7204 116.574 25.9088 115.81 26.2356 115.102C26.3848 114.754 26.5526 114.414 26.7381 114.084L27.0009 113.598L27.2868 113.123C28.0017 111.973 28.8097 110.884 29.7026 109.866C30.5142 108.924 31.3027 108.117 32.0154 107.419C32.7282 106.721 33.3442 106.136 33.8552 105.659L35.0158 104.557C35.1616 104.434 35.2916 104.293 35.4026 104.137Z" fill="#141A1E"/>
<path d="M57.3049 71.5035C57.3343 71.5035 57.923 67.3931 58.6211 62.3133C59.3191 57.2336 59.8594 53.1126 59.8279 53.1084C59.7964 53.1042 59.2098 57.2189 58.5117 62.2986C57.8137 67.3784 57.2733 71.4993 57.3049 71.5035Z" fill="#141A1E"/>
<path d="M39.9694 49C39.973 49.0217 39.9794 49.0429 39.9883 49.0631L40.0556 49.246L40.3226 49.9461L41.3234 52.5155C42.1644 54.6853 43.3166 57.6877 44.5403 61.0244C45.764 64.3612 46.8258 67.3951 47.5827 69.5965C47.959 70.6919 48.2639 71.5813 48.4763 72.2058C48.5814 72.5064 48.6634 72.744 48.7222 72.9143C48.7496 72.99 48.7727 73.0489 48.7895 73.0972C48.7958 73.1184 48.8042 73.1388 48.8148 73.1582C48.8132 73.1359 48.8082 73.1139 48.8 73.093L48.7433 72.9059C48.6907 72.7356 48.615 72.4854 48.5183 72.191C48.3207 71.5708 48.0263 70.6751 47.6563 69.5713C46.9162 67.3636 45.8649 64.3149 44.6412 60.9866C43.4175 57.6583 42.259 54.6495 41.397 52.486C40.9765 51.4053 40.6106 50.5307 40.3604 49.9293L40.0724 49.2376C40.0408 49.164 40.0135 49.1051 39.9946 49.0589L39.9694 49Z" fill="#141A1E"/>
<path d="M27.5477 65.1811C27.5288 65.2042 30.5375 67.5612 34.2759 70.4375C38.0142 73.3137 41.0461 75.6392 41.065 75.6139C41.0839 75.5887 38.0731 73.2338 34.3368 70.3576C30.6006 67.4813 27.5645 65.1559 27.5477 65.1811Z" fill="#141A1E"/>
<path d="M64.603 72.2709C64.6282 72.2898 65.7909 70.7991 67.2017 68.9573C68.6125 67.1154 69.7395 65.5932 69.7248 65.5785C69.7101 65.5638 68.5368 67.0503 67.126 68.8921C65.7152 70.7339 64.5799 72.2519 64.603 72.2709Z" fill="#141A1E"/>
<path d="M28.9689 83.8602C28.9689 83.8896 30.8213 83.3766 33.0878 82.7164C35.3543 82.0562 37.1836 81.497 37.1751 81.4675C37.1667 81.4381 35.3228 81.9511 33.0563 82.6113C30.7897 83.2715 28.9584 83.8308 28.9689 83.8602Z" fill="#141A1E"/>
<path d="M55.463 83.7928L54.0964 83.0065L53.371 81.6062L52.5825 82.9729L51.1822 83.7003L52.5489 84.4867L53.2764 85.887L54.0627 84.5203L55.463 83.7928Z" fill="white"/>
<path d="M62.8513 81.623L62.3719 81.3476L62.1175 80.8577L61.8421 81.3349L61.3522 81.5894L61.8316 81.8648L62.086 82.3547L62.3614 81.8774L62.8513 81.623Z" fill="white"/>
<path d="M58.1335 91.28L57.2084 90.7481L56.7164 89.7998L56.1844 90.7249L55.2362 91.2169L56.1613 91.7489L56.6533 92.6971L57.1852 91.772L58.1335 91.28Z" fill="white"/>
<path d="M-1.52588e-05 120.792C-1.52588e-05 120.83 41.4589 120.862 92.5885 120.862C143.718 120.862 185.182 120.83 185.182 120.792C185.182 120.754 143.734 120.722 92.5885 120.722C41.4428 120.722 -1.52588e-05 120.752 -1.52588e-05 120.792Z" fill="#141A1E"/>
<path d="M138.744 109.96C138.744 109.96 157.137 114.981 157.9 115.237C159.006 115.619 158.821 119.623 157.093 119.58C156.277 119.55 142.95 120.066 141.266 119.962C139.581 119.858 135.048 118.099 135.048 118.099L138.744 109.96Z" fill="#214B5F"/>
<path d="M146.417 116.883C146.51 116.883 146.633 115.936 147.228 114.937C147.824 113.938 148.587 113.339 148.529 113.269C148.472 113.2 147.581 113.704 146.959 114.785C146.338 115.866 146.338 116.883 146.417 116.883Z" fill="#141A1E"/>
<path d="M144.494 116.014C144.587 116.014 144.772 115.172 145.262 114.225C145.751 113.278 146.333 112.614 146.267 112.553C146.201 112.492 145.495 113.087 144.988 114.09C144.481 115.094 144.415 116.014 144.494 116.014Z" fill="#141A1E"/>
<path d="M142.695 115.55C142.788 115.55 142.717 114.638 143.136 113.63C143.555 112.622 144.207 112.001 144.141 111.936C144.075 111.871 143.259 112.427 142.849 113.522C142.439 114.616 142.62 115.58 142.695 115.55Z" fill="#141A1E"/>
<path d="M143.025 113.204C143.186 112.774 143.254 112.316 143.224 111.858C143.216 111.356 143.149 110.856 143.025 110.368C142.956 110.081 142.865 109.799 142.752 109.526C142.694 109.358 142.592 109.208 142.456 109.092C142.365 109.023 142.251 108.988 142.135 108.993C142.02 108.999 141.91 109.044 141.826 109.122C141.684 109.258 141.596 109.44 141.579 109.634C141.568 109.794 141.568 109.953 141.579 110.112C141.584 110.405 141.622 110.696 141.693 110.981C141.816 111.466 142.006 111.932 142.258 112.366C142.463 112.777 142.744 113.147 143.087 113.456C143.127 113.43 142.818 113.022 142.452 112.266C142.237 111.839 142.075 111.386 141.971 110.92C141.911 110.647 141.88 110.369 141.879 110.09C141.879 109.812 141.879 109.465 142.051 109.33C142.081 109.297 142.122 109.276 142.168 109.272C142.213 109.268 142.258 109.281 142.293 109.309C142.387 109.396 142.457 109.505 142.496 109.626C142.607 109.886 142.7 110.153 142.774 110.425C142.903 110.888 142.984 111.362 143.016 111.841C143.056 112.683 142.972 113.2 143.025 113.204Z" fill="#141A1E"/>
<path d="M142.999 113.022C142.623 112.867 142.215 112.802 141.809 112.831C141.363 112.829 140.918 112.883 140.486 112.991C140.222 113.045 139.968 113.138 139.732 113.265C139.58 113.339 139.458 113.46 139.383 113.609C139.308 113.758 139.285 113.927 139.317 114.09C139.359 114.247 139.443 114.389 139.561 114.503C139.678 114.617 139.823 114.698 139.983 114.737C140.254 114.805 140.537 114.805 140.808 114.737C141.629 114.499 142.349 114.004 142.858 113.326C142.516 113.521 142.189 113.74 141.879 113.982C141.537 114.211 141.154 114.375 140.75 114.464C140.526 114.518 140.291 114.518 140.067 114.464C139.961 114.435 139.865 114.38 139.788 114.304C139.711 114.228 139.655 114.133 139.626 114.029C139.608 113.927 139.625 113.823 139.675 113.731C139.724 113.64 139.803 113.568 139.899 113.526C140.11 113.411 140.335 113.325 140.569 113.269C140.974 113.156 141.389 113.085 141.809 113.057C142.541 112.996 142.99 113.07 142.999 113.022Z" fill="#141A1E"/>
<path d="M149.243 117.074C149.336 117.074 149.243 116.288 149.609 115.441C149.975 114.594 150.566 114.09 150.491 114.021C150.416 113.951 149.693 114.377 149.305 115.324C148.917 116.27 149.168 117.109 149.243 117.074Z" fill="#141A1E"/>
<path d="M136.411 117.912C136.639 118.043 136.878 118.154 137.125 118.242C137.794 118.495 138.479 118.704 139.176 118.868C141.483 119.367 143.844 119.587 146.205 119.524C148.966 119.493 151.453 119.372 153.261 119.298L155.395 119.189C155.657 119.187 155.919 119.16 156.176 119.107C155.911 119.06 155.642 119.042 155.373 119.055H153.234L146.179 119.189C143.838 119.248 141.498 119.06 139.198 118.629C137.443 118.303 136.411 117.856 136.411 117.912Z" fill="#141A1E"/>
<path d="M135.851 118.325C136.322 118.143 136.782 117.937 137.231 117.708C138.316 117.203 139.523 117.006 140.715 117.139C142.104 117.348 143.088 118.268 143.727 118.902C144.054 119.284 144.409 119.641 144.79 119.971C144.544 119.529 144.24 119.122 143.886 118.759C143.524 118.339 143.114 117.961 142.664 117.634C142.104 117.224 141.453 116.951 140.764 116.84C139.513 116.691 138.247 116.928 137.139 117.517C136.669 117.718 136.235 117.991 135.851 118.325Z" fill="#141A1E"/>
<path d="M154.324 119.111C154.247 118.877 154.157 118.648 154.055 118.425C153.861 117.878 153.816 117.29 153.922 116.721C154.029 116.151 154.284 115.619 154.663 115.176C154.954 114.829 155.188 114.663 155.166 114.629C155.144 114.594 154.875 114.724 154.535 115.063C154.09 115.505 153.79 116.068 153.675 116.681C153.56 117.293 153.636 117.925 153.891 118.494C154.09 118.92 154.301 119.128 154.324 119.111Z" fill="#141A1E"/>
<path d="M119.531 110.499C119.531 110.499 100.64 113.326 99.8767 113.495C98.7258 113.747 98.4303 117.743 100.15 117.882C100.966 117.947 114.138 120.023 115.822 120.118C117.507 120.214 122.79 118.85 122.79 118.85L119.531 110.499Z" fill="#214B5F"/>
<path d="M111.077 116.47C110.984 116.47 110.975 115.506 110.508 114.442C110.04 113.378 109.348 112.705 109.414 112.631C109.48 112.557 110.296 113.182 110.79 114.325C111.284 115.467 111.152 116.487 111.077 116.47Z" fill="#141A1E"/>
<path d="M113.088 115.845C112.996 115.845 112.916 114.976 112.541 113.977C112.167 112.978 111.659 112.24 111.748 112.201C111.836 112.162 112.449 112.818 112.832 113.873C113.216 114.928 113.168 115.849 113.088 115.845Z" fill="#141A1E"/>
<path d="M114.931 115.58C114.843 115.58 115.019 114.672 114.737 113.626C114.455 112.579 113.855 111.888 113.943 111.823C114.032 111.758 114.742 112.414 115.033 113.56C115.324 114.707 115.002 115.619 114.931 115.58Z" fill="#141A1E"/>
<path d="M114.891 113.217C114.779 112.772 114.767 112.308 114.856 111.858C114.919 111.363 115.042 110.877 115.222 110.411C115.327 110.133 115.452 109.863 115.597 109.604C115.673 109.441 115.792 109.302 115.941 109.2C116.041 109.142 116.159 109.121 116.273 109.14C116.388 109.159 116.492 109.217 116.567 109.304C116.691 109.456 116.755 109.647 116.748 109.843C116.747 110.002 116.736 110.162 116.713 110.32C116.673 110.617 116.599 110.909 116.492 111.189C116.311 111.654 116.066 112.092 115.765 112.492C115.511 112.876 115.188 113.212 114.812 113.482C114.772 113.447 115.13 113.048 115.584 112.375C115.851 111.967 116.067 111.53 116.228 111.072C116.318 110.808 116.38 110.536 116.413 110.259C116.439 109.982 116.483 109.638 116.338 109.486C116.312 109.45 116.273 109.425 116.228 109.416C116.184 109.407 116.138 109.415 116.1 109.439C115.995 109.514 115.912 109.614 115.857 109.73C115.716 109.974 115.592 110.228 115.487 110.49C115.303 110.934 115.164 111.395 115.072 111.866C114.922 112.7 114.94 113.217 114.891 113.217Z" fill="#141A1E"/>
<path d="M114.936 113.039C115.322 112.926 115.73 112.904 116.126 112.974C116.563 113.026 116.993 113.129 117.405 113.282C117.659 113.369 117.899 113.491 118.119 113.643C118.26 113.734 118.367 113.869 118.424 114.026C118.48 114.182 118.483 114.353 118.432 114.512C118.371 114.662 118.27 114.794 118.14 114.894C118.01 114.994 117.855 115.058 117.692 115.08C117.414 115.113 117.133 115.079 116.871 114.981C116.086 114.646 115.432 114.07 115.006 113.339C115.318 113.573 115.613 113.828 115.888 114.103C116.199 114.372 116.56 114.58 116.951 114.716C117.169 114.791 117.401 114.814 117.63 114.785C117.738 114.77 117.841 114.728 117.929 114.663C118.016 114.597 118.085 114.511 118.128 114.412C118.157 114.311 118.153 114.205 118.114 114.107C118.076 114.01 118.007 113.928 117.917 113.873C117.721 113.738 117.509 113.627 117.286 113.543C116.897 113.382 116.492 113.263 116.078 113.187C115.394 113.07 114.936 113.087 114.936 113.039Z" fill="#141A1E"/>
<path d="M108.246 116.331C108.153 116.309 108.338 115.554 108.083 114.663C107.827 113.773 107.289 113.213 107.355 113.152C107.421 113.091 108.109 113.586 108.378 114.585C108.647 115.584 108.312 116.374 108.246 116.331Z" fill="#141A1E"/>
<path d="M120.902 118.668C120.662 118.774 120.41 118.855 120.153 118.911C119.46 119.085 118.755 119.213 118.045 119.293C115.695 119.519 113.325 119.462 110.989 119.124C108.251 118.767 105.799 118.355 104.017 118.073L101.91 117.712C101.65 117.681 101.394 117.623 101.147 117.538C101.408 117.53 101.67 117.549 101.927 117.595L104.048 117.86L111.029 118.82C113.346 119.152 115.692 119.239 118.027 119.08C119.813 118.932 120.889 118.62 120.902 118.668Z" fill="#141A1E"/>
<path d="M121.392 119.141C121.361 119.18 120.898 118.833 120.095 118.368C119.08 117.736 117.905 117.399 116.704 117.395C115.302 117.439 114.217 118.238 113.503 118.794C113.13 119.132 112.736 119.445 112.321 119.732C112.615 119.32 112.965 118.95 113.362 118.633C113.772 118.257 114.224 117.929 114.711 117.656C115.318 117.316 115.998 117.122 116.695 117.091C117.958 117.088 119.191 117.47 120.223 118.186C120.661 118.442 121.055 118.765 121.392 119.141Z" fill="#141A1E"/>
<path d="M60.7792 34.0569C60.8955 33.8219 61.09 33.6334 61.3304 33.5227L60.8894 32.6541C60.9195 32.3426 61.0077 32.0393 61.1496 31.7594C61.3701 31.3859 62.1418 31.4163 62.1418 31.4163L62.0228 31.1688C61.9422 30.9935 61.9087 30.8007 61.9257 30.609C61.9427 30.4173 62.0095 30.2332 62.1198 30.0743C62.155 30.0265 62.1903 29.9788 62.2344 29.9266C62.5017 29.671 62.8416 29.5014 63.209 29.4402C63.209 29.4402 62.768 28.6064 62.9664 28.2546C63.1728 27.9653 63.4607 27.742 63.7946 27.6123C64.1285 27.4826 64.4937 27.4522 64.845 27.525C66.0214 27.9801 67.1635 28.5171 68.2625 29.1319C68.3652 29.1868 68.4787 29.2191 68.5952 29.2267C68.7118 29.2342 68.8286 29.2167 68.9376 29.1754C69.0466 29.1341 69.1452 29.07 69.2266 28.9875C69.308 28.905 69.3703 28.8061 69.4091 28.6976C69.8014 27.5883 70.3652 26.5453 71.0804 25.6053C71.9094 24.6238 72.6855 24.702 73.1397 24.8757C73.1906 24.8952 73.2365 24.9254 73.2743 24.9643C73.3121 25.0031 73.3408 25.0495 73.3584 25.1004C73.3761 25.1513 73.3822 25.2053 73.3764 25.2588C73.3706 25.3123 73.3531 25.3638 73.3249 25.4099C72.8796 26.1085 72.479 26.8337 72.1255 27.5814C71.9094 28.1504 71.6845 32.4326 71.6845 32.4326L72.8752 34.6649L84.8829 53.3442C84.8829 53.3442 103.029 41.301 102.963 41.0014L103.818 54.8122L90.1481 63.7588C88.9771 64.5246 87.65 65.0287 86.2601 65.2356C84.8702 65.4426 83.4512 65.3473 82.1026 64.9566C80.7541 64.5659 79.5087 63.8892 78.454 62.974C77.3992 62.0588 76.5607 60.9273 75.9973 59.659L66.7941 39.9851L65.6784 38.3782L61.3436 35.6421C61.3436 35.6421 60.6249 34.4173 60.7792 34.0569Z" fill="#FFBE9D"/>
<path d="M62.7684 29.4447C62.7684 29.4447 62.7948 29.4751 62.8521 29.5229L63.1123 29.7313C63.3549 29.9137 63.6856 30.1656 64.0825 30.474L65.5333 31.5597C65.8067 31.7595 66.0801 31.994 66.4152 32.1851C66.5811 32.2984 66.772 32.3713 66.9721 32.3977C67.1722 32.4242 67.3758 32.4034 67.5662 32.3371C67.762 32.2501 67.9188 32.0957 68.0071 31.9028C68.0857 31.7236 68.1205 31.5287 68.1086 31.3339C68.0755 30.9704 67.9203 30.628 67.6676 30.3611C67.4444 30.1254 67.2026 29.9075 66.9444 29.7096L66.2917 29.1754L65.3392 28.4067L65.0791 28.2026C65.0173 28.1591 64.9865 28.1331 64.982 28.1374L65.0658 28.22L65.3128 28.4414L66.2388 29.2319L66.8826 29.7747C67.1349 29.9733 67.3708 30.1911 67.5882 30.4262C67.8362 30.672 67.9917 30.9937 68.0292 31.3382C68.0521 31.5165 68.0202 31.6974 67.9376 31.8577C67.8551 32.0179 67.7257 32.1501 67.5662 32.2372C67.3944 32.3065 67.2058 32.3246 67.0238 32.2894C66.8428 32.2548 66.6695 32.1886 66.5122 32.0939C66.2035 31.9072 65.9213 31.6596 65.6303 31.4816L64.1707 30.4088L63.1785 29.6966L62.9051 29.5055L62.7684 29.4447Z" fill="#EB996E"/>
<path d="M61.8073 31.4556C61.8684 31.518 61.9364 31.5734 62.0102 31.6206C62.1425 31.7205 62.3409 31.8638 62.5879 32.0332C63.0773 32.3676 63.7697 32.8193 64.559 33.2753C64.7575 33.3882 64.9471 33.5055 65.1499 33.5967C65.3466 33.6879 65.5636 33.7283 65.7805 33.7139C65.9644 33.6923 66.1384 33.6201 66.2827 33.5057C66.427 33.3912 66.5356 33.2392 66.5963 33.0668C66.6705 32.8342 66.6515 32.5825 66.5434 32.3633C66.5126 32.306 66.4757 32.2521 66.4332 32.2026C66.4023 32.1678 66.3847 32.1548 66.3803 32.1548C66.3758 32.1548 66.4376 32.233 66.5037 32.3806C66.5837 32.5936 66.5837 32.8278 66.5037 33.0408C66.4473 33.1968 66.3467 33.3336 66.2139 33.4352C66.0811 33.5368 65.9215 33.5988 65.7541 33.614C65.5546 33.6231 65.356 33.5828 65.1764 33.4968C64.9785 33.4025 64.7856 33.2981 64.5987 33.1841C63.8094 32.7281 63.1126 32.2894 62.6099 31.968L62.019 31.5859C61.9521 31.5369 61.8814 31.4933 61.8073 31.4556Z" fill="#EB996E"/>
<path d="M61.2466 33.4185C61.3112 33.4647 61.3807 33.504 61.4538 33.5357L62.0403 33.8267C62.5386 34.0699 63.2309 34.3956 63.9938 34.7518C64.1799 34.8438 64.3714 34.925 64.5671 34.995C64.7573 35.0643 64.9633 35.0808 65.1624 35.0427C65.2547 35.0257 65.3421 34.9889 65.4183 34.9348C65.4945 34.8808 65.5577 34.8109 65.6034 34.73C65.677 34.5882 65.7018 34.4266 65.6739 34.2697C65.6256 34.0495 65.5028 33.8519 65.3256 33.7094C65.2065 33.6095 65.1271 33.5705 65.1227 33.5791C65.1183 33.5878 65.1889 33.6356 65.2991 33.7398C65.4522 33.8863 65.5555 34.076 65.5946 34.2827C65.6164 34.4213 65.5917 34.5632 65.524 34.6866C65.4828 34.7546 65.4272 34.8131 65.361 34.8581C65.2948 34.903 65.2196 34.9334 65.1404 34.9472C64.9596 34.979 64.7734 34.9609 64.6024 34.8951C64.4109 34.8252 64.2239 34.744 64.0423 34.6519C63.275 34.3001 62.5827 33.983 62.0756 33.7572L61.4715 33.501C61.4011 33.4626 61.3253 33.4348 61.2466 33.4185Z" fill="#EB996E"/>
<path d="M60.9338 35.2337C61.1581 35.3105 61.3881 35.37 61.6217 35.4118C62.0627 35.5073 62.6447 35.6333 63.3018 35.7636L63.7825 35.8591C63.9339 35.8957 64.0895 35.9132 64.2455 35.9112C64.3948 35.9111 64.5396 35.8605 64.6556 35.7679C64.7065 35.7262 64.7473 35.6736 64.7747 35.6142C64.8022 35.5548 64.8158 35.4901 64.8144 35.4248C64.8068 35.3344 64.7791 35.2467 64.7334 35.1679C64.6877 35.0891 64.625 35.0212 64.5498 34.9688C64.5002 34.926 64.4388 34.8988 64.3734 34.8906C64.3734 34.8906 64.4351 34.9254 64.5233 35.0035C64.5876 35.0572 64.6397 35.1237 64.6761 35.1985C64.7126 35.2733 64.7327 35.3549 64.735 35.4379C64.7348 35.4907 64.7224 35.5428 64.6987 35.5902C64.675 35.6376 64.6407 35.6791 64.5983 35.7115C64.4969 35.7872 64.3726 35.8269 64.2455 35.8244C64.0968 35.8219 63.9489 35.803 63.8045 35.7679L63.3239 35.668C62.6668 35.5377 62.0715 35.4248 61.6393 35.3467C61.4071 35.2927 61.1714 35.255 60.9338 35.2337Z" fill="#EB996E"/>
<path d="M65.639 34.3654C66.0456 34.2852 66.4591 34.2445 66.8737 34.2438C67.2853 34.2816 67.6917 34.3617 68.0864 34.4827C67.7252 34.2566 67.3062 34.1361 66.8782 34.1352C66.4515 34.0978 66.0226 34.1775 65.639 34.3654Z" fill="#EB996E"/>
<path d="M130.431 30.2743C130.431 30.2743 136.535 25.2059 135.123 21.7142C133.712 18.2224 129.792 16.5025 127.865 10.14C126.326 5.06735 117.158 -4.72183 106.292 2.66131C106.292 2.66131 102.615 2.09238 100.525 3.74273C98.4343 5.39308 97.9272 8.68509 97.0408 12.4852C95.6738 18.344 94.9242 22.8477 97.57 25.7141C100.216 28.5805 101.186 29.3492 101.045 32.6065C100.86 36.8583 98.9547 36.2894 100.604 39.3903L109.714 36.4631L109.811 33.9919L110.733 36.3154L116.025 34.4392L130.431 30.2743Z" fill="#141A1E"/>
<path d="M100.088 8.89795C100.679 10.2356 100.194 11.7817 99.6471 13.1367C99.1003 14.4918 98.4344 15.9206 98.7166 17.3538C99.2193 19.8945 102.425 21.3103 102.778 23.8684C102.968 25.2407 102.271 26.6392 102.54 28.0029C102.809 29.3666 103.92 30.3134 105.106 30.9735C106.293 31.6337 107.602 32.0767 108.718 32.8497C108.718 32.8497 111.17 34.8301 115.394 31.5685" fill="#141A1E"/>
<path d="M117.396 5.57541C117.944 5.45042 118.52 5.53228 119.01 5.80483C119.5 6.07738 119.868 6.52083 120.042 7.04769L128.796 35.6682C129.929 39.0167 125.651 42.591 122.005 43.7549C118.318 44.9319 117.573 43.2077 116.404 40.0547C114.446 34.7909 113.758 32.8018 113.758 32.8322C113.758 32.8626 108.872 33.6574 105.821 28.0549C104.304 25.2623 102.734 20.3677 101.601 16.3287C100.569 12.6893 101.424 7.49502 105.159 6.63945L117.396 5.57541Z" fill="#FFBE9D"/>
<path d="M104.687 19.3165C104.755 19.5165 104.899 19.6822 105.09 19.7781C105.28 19.8739 105.501 19.8922 105.706 19.829C105.807 19.8029 105.901 19.7572 105.984 19.6945C106.067 19.6319 106.136 19.5535 106.188 19.4642C106.24 19.3748 106.273 19.2761 106.286 19.1739C106.298 19.0718 106.29 18.9682 106.261 18.8692C106.193 18.67 106.048 18.5049 105.857 18.4092C105.667 18.3135 105.447 18.2947 105.242 18.3567C105.141 18.3828 105.047 18.4286 104.964 18.4912C104.881 18.5539 104.812 18.6322 104.76 18.7216C104.708 18.811 104.675 18.9097 104.662 19.0118C104.65 19.114 104.658 19.2176 104.687 19.3165Z" fill="#141A1E"/>
<path d="M103.48 18.2959C103.608 18.361 104.044 17.7356 104.878 17.4533C105.711 17.171 106.465 17.3708 106.518 17.2405C106.549 17.1797 106.386 17.0321 106.077 16.9322C105.63 16.8106 105.156 16.8273 104.719 16.9799C104.285 17.1284 103.91 17.4081 103.647 17.7791C103.44 18.0396 103.414 18.2524 103.48 18.2959Z" fill="#141A1E"/>
<path d="M112.942 16.7197C113.01 16.9188 113.154 17.084 113.343 17.1805C113.532 17.277 113.752 17.2971 113.956 17.2365C114.058 17.2104 114.152 17.1647 114.235 17.102C114.318 17.0394 114.387 16.9611 114.439 16.8717C114.491 16.7823 114.524 16.6836 114.537 16.5814C114.549 16.4793 114.541 16.3757 114.512 16.2767C114.444 16.0777 114.301 15.9124 114.111 15.8159C113.922 15.7195 113.702 15.6994 113.498 15.7599C113.397 15.786 113.302 15.8317 113.219 15.8944C113.136 15.9571 113.067 16.0354 113.015 16.1248C112.963 16.2142 112.93 16.3128 112.918 16.415C112.905 16.5172 112.914 16.6208 112.942 16.7197Z" fill="#141A1E"/>
<path d="M111.778 15.825C111.911 15.8944 112.347 15.2647 113.181 14.9824C114.014 14.7001 114.768 14.8999 114.821 14.7696C114.852 14.7088 114.689 14.5655 114.358 14.4656C113.911 14.3417 113.436 14.3584 113 14.5134C112.566 14.6588 112.19 14.9373 111.928 15.3081C111.743 15.5861 111.717 15.7989 111.778 15.825Z" fill="#141A1E"/>
<path d="M110.905 22.9387C110.418 22.9521 109.935 23.0265 109.468 23.1602C109.247 23.2123 109.027 23.2383 108.947 23.1081C108.855 22.8976 108.829 22.6645 108.872 22.4392C108.872 21.8659 108.912 21.2623 108.934 20.6325C109.009 18.0615 108.983 15.9812 108.877 15.9768C108.771 15.9725 108.625 18.0571 108.555 20.6238C108.555 21.2536 108.533 21.8573 108.52 22.4349C108.472 22.7364 108.536 23.0448 108.7 23.3035C108.755 23.3654 108.823 23.4143 108.899 23.4466C108.976 23.479 109.058 23.4939 109.141 23.4902C109.269 23.4825 109.395 23.4577 109.516 23.4164C109.998 23.3163 110.465 23.1558 110.905 22.9387Z" fill="#141A1E"/>
<path d="M113.754 32.8322C116.608 31.9045 119.144 30.2128 121.078 27.9463C121.078 27.9463 120.483 32.7236 114.252 34.2393L113.754 32.8322Z" fill="#EB996E"/>
<path d="M111.955 24.8107C112.043 24.5597 112.195 24.3353 112.396 24.1588C112.598 23.9824 112.842 23.8599 113.105 23.8031C113.294 23.7563 113.491 23.7475 113.683 23.7774C113.876 23.8072 114.06 23.8751 114.226 23.9768C114.386 24.0744 114.512 24.2188 114.586 24.39C114.659 24.5613 114.677 24.7508 114.636 24.9323C114.555 25.1249 114.417 25.2891 114.24 25.4036C114.063 25.5182 113.855 25.5779 113.643 25.575C113.202 25.5745 112.766 25.4859 112.36 25.3145C112.242 25.2813 112.132 25.2268 112.034 25.1538C111.988 25.1186 111.954 25.0711 111.935 25.0172C111.917 24.9632 111.914 24.9051 111.928 24.8498" fill="#EB996E"/>
<path d="M111.161 13.48C111.288 13.6972 112.131 13.4235 113.171 13.3541C114.212 13.2846 115.081 13.4018 115.178 13.1716C115.218 13.0587 115.032 12.8676 114.657 12.7069C114.165 12.5078 113.631 12.4288 113.101 12.4768C112.569 12.5114 112.054 12.6707 111.597 12.9415C111.253 13.1586 111.099 13.3758 111.161 13.48Z" fill="#141A1E"/>
<path d="M102.28 15.56C102.509 15.699 103.162 15.3082 103.995 15.0649C104.828 14.8217 105.587 14.7609 105.697 14.5177C105.741 14.4005 105.574 14.2398 105.212 14.1486C104.718 14.0524 104.208 14.0787 103.727 14.225C103.246 14.3713 102.809 14.6331 102.456 14.9868C102.213 15.256 102.174 15.4862 102.28 15.56Z" fill="#141A1E"/>
<path d="M127.592 24.3765C125.952 18.9651 124.31 13.5508 122.666 8.13358C122.331 7.02176 121.943 5.83611 121.004 5.13689C120.065 4.43766 118.927 4.39857 117.816 4.37686C113.014 4.27853 108.217 4.74508 103.528 5.76662C103.308 6.86541 104.273 7.91208 105.358 8.27255C106.443 8.63302 107.616 8.50273 108.754 8.51576C109.891 8.52879 111.139 8.72857 111.911 9.55809C112.683 10.3876 112.815 11.7991 113.591 12.7198C114.914 14.3007 117.723 13.9663 119.05 15.5558C120.051 16.7588 119.782 18.5177 120.113 20.0378C120.488 21.775 120.488 21.775 121.877 24.3027C122.719 25.8575 120.603 28.8281 122.71 32.6803L126.803 31.5338L125.008 25.5838L127.442 31.1646L127.592 24.3765Z" fill="#141A1E"/>
<path d="M113.375 22.839C113.291 22.8868 113.335 23.1039 113.339 23.4166C113.366 23.8036 113.283 24.1903 113.1 24.5338C112.918 24.8773 112.641 25.1641 112.303 25.3623C112.043 25.536 111.836 25.6229 111.862 25.7184C111.888 25.814 112.113 25.8965 112.506 25.8053C112.765 25.7374 113.008 25.617 113.218 25.4518C113.428 25.2866 113.6 25.0802 113.725 24.8457C113.849 24.6113 113.923 24.3538 113.941 24.0899C113.958 23.8259 113.92 23.5611 113.829 23.3124C113.666 22.9389 113.45 22.7913 113.375 22.839Z" fill="#141A1E"/>
<path d="M114.592 9.78369C114.661 9.83671 114.739 9.87916 114.821 9.90964C115.044 10.0165 115.26 10.1354 115.469 10.2658C116.428 10.8514 117.246 11.6337 117.87 12.5594C118.493 13.485 118.906 14.5322 119.081 15.6294C119.187 16.4033 119.187 17.1877 119.081 17.9616C118.95 18.8064 118.899 19.6612 118.927 20.5153C118.955 20.9605 119.048 21.3994 119.204 21.8182C119.37 22.2105 119.566 22.5895 119.791 22.9517C120.245 23.5892 120.56 24.3123 120.717 25.0755C120.803 25.7751 120.783 26.4834 120.66 27.1775C120.567 27.842 120.448 28.4804 120.404 29.032C120.28 29.9432 120.419 30.8702 120.805 31.7073C120.924 31.9269 121.073 32.1299 121.246 32.311C121.374 32.4282 121.445 32.4847 121.449 32.476C121.229 32.2309 121.041 31.9595 120.889 31.6682C120.549 30.843 120.438 29.9437 120.567 29.0624C120.624 28.4978 120.752 27.8854 120.854 27.2209C120.989 26.5049 121.014 25.7729 120.929 25.0494C120.757 23.4512 119.191 22.2786 119.165 20.524C119.137 19.6832 119.186 18.8417 119.31 18.0094C119.42 17.2169 119.42 16.4132 119.31 15.6207C119.093 14.2771 118.516 13.0148 117.639 11.9639C117.055 11.26 116.341 10.6707 115.535 10.2267C115.319 10.1037 115.094 9.99768 114.861 9.90964C114.779 9.85384 114.688 9.81132 114.592 9.78369Z" fill="#141A1E"/>
<path d="M94.8273 34.2044L94.9023 34.2652C94.9552 34.3 95.0301 34.3608 95.136 34.4216C95.448 34.6023 95.7853 34.737 96.137 34.8211C96.6983 34.9586 97.2825 34.9793 97.8524 34.8819C98.6159 34.7626 99.3239 34.4154 99.8809 33.8874C100.553 33.2405 100.981 32.3871 101.094 31.4683C101.167 30.9588 101.132 30.4397 100.992 29.9439C100.838 29.4229 100.593 28.9321 100.269 28.4934C99.5314 27.6073 98.7153 26.7875 97.8303 26.0439C97.3873 25.6391 96.9856 25.1925 96.6309 24.7106C96.2805 24.2065 96.003 23.6569 95.8063 23.0776C95.445 21.9181 95.2884 20.7062 95.3432 19.4946C95.3869 18.3604 95.5062 17.2302 95.7004 16.1114C96.0154 14.2141 96.5055 12.349 97.1645 10.5393C97.6083 9.31663 98.1236 8.12029 98.7079 6.95631C98.9151 6.54372 99.0827 6.22668 99.1973 6.01387C99.264 5.91489 99.3216 5.81024 99.3693 5.70117C99.293 5.79964 99.2251 5.90424 99.1665 6.01387C99.0386 6.21799 98.8578 6.53069 98.6373 6.93894C98.0179 8.09067 97.4772 9.28186 97.0189 10.5046C96.3325 12.3176 95.8216 14.1906 95.4932 16.0984C95.2903 17.2266 95.1651 18.3671 95.1183 19.512C95.059 20.7487 95.2187 21.9861 95.5902 23.1688C95.7903 23.7692 96.0769 24.3381 96.4413 24.8582C96.807 25.3525 97.2205 25.8107 97.676 26.2263C98.5527 26.9588 99.3627 27.7653 100.097 28.6367C100.41 29.0536 100.647 29.5209 100.798 30.0178C100.933 30.4892 100.97 30.9824 100.908 31.4683C100.803 32.3484 100.401 33.1683 99.7662 33.7962C99.2353 34.3077 98.5611 34.651 97.8303 34.7821C97.2773 34.8865 96.7084 34.8776 96.159 34.756C95.6891 34.6403 95.24 34.4543 94.8273 34.2044Z" fill="#141A1E"/>
<path d="M132.341 28.3155C131.825 28.1839 131.342 27.9472 130.925 27.6206C129.831 26.664 129.158 25.3263 129.046 23.8899C128.952 22.9041 128.925 21.913 128.967 20.9236C129.031 19.7733 128.941 18.6197 128.698 17.4927C128.549 16.8824 128.31 16.297 127.988 15.7554C127.646 15.1827 127.167 14.6999 126.595 14.3483C125.4 13.6274 123.949 13.6621 122.626 13.2148C121.981 12.9923 121.401 12.6181 120.937 12.1247C120.49 11.6347 120.091 11.1039 119.746 10.5395C119.041 9.44503 118.362 8.29413 117.286 7.61227C116.769 7.28832 116.186 7.07935 115.579 6.99991C115.017 6.92555 114.448 6.90229 113.881 6.93042C112.879 7.00742 111.871 6.9987 110.869 6.90436C109.425 6.70916 108.05 6.16947 106.865 5.33218C106.547 5.10233 106.24 4.85587 105.948 4.59387L105.723 4.38541L105.64 4.31592C105.981 4.7267 106.375 5.09173 106.813 5.40167C107.996 6.27812 109.383 6.84985 110.847 7.06505C111.857 7.16847 112.873 7.18591 113.886 7.11717C114.953 7.11717 116.166 7.11717 117.171 7.79034C118.176 8.46351 118.851 9.55361 119.557 10.6567C119.908 11.2354 120.316 11.7794 120.774 12.281C121.259 12.7984 121.864 13.1919 122.538 13.4276C123.896 13.8879 125.342 13.8619 126.458 14.5394C127.506 15.2402 128.23 16.3204 128.473 17.5448C128.718 18.6524 128.814 19.7869 128.76 20.9193C128.722 21.918 128.757 22.918 128.866 23.9116C128.996 25.3795 129.709 26.7374 130.85 27.6901C131.166 27.9358 131.527 28.12 131.913 28.233C132.013 28.2614 132.114 28.2846 132.217 28.3024C132.257 28.3145 132.299 28.319 132.341 28.3155Z" fill="#214B5F"/>
<path d="M127.922 10.3268C127.635 10.4262 127.34 10.5032 127.04 10.5569C126.225 10.6549 125.399 10.5207 124.659 10.1704C123.58 9.61142 122.614 8.86214 121.81 7.95981C121.325 7.47339 120.818 6.95223 120.245 6.46147C119.657 5.93872 118.985 5.51601 118.256 5.21068C117.515 4.9259 116.727 4.77865 115.932 4.77638C115.203 4.77455 114.474 4.8137 113.749 4.89364C113.061 4.95878 112.426 5.02828 111.8 5.03262C111.234 5.04175 110.668 4.99665 110.111 4.89798C109.303 4.77312 108.542 4.44056 107.906 3.93383C107.688 3.73196 107.48 3.51887 107.284 3.29541C107.317 3.36615 107.356 3.43316 107.404 3.49519C107.455 3.57482 107.512 3.65034 107.576 3.72102C107.658 3.8212 107.75 3.91419 107.849 3.99898C108.484 4.54768 109.261 4.91289 110.094 5.05433C110.66 5.16596 111.236 5.22125 111.813 5.21937C112.435 5.21937 113.092 5.15856 113.784 5.1021C114.501 5.027 115.221 4.9922 115.941 4.99787C116.708 4.99688 117.469 5.13528 118.185 5.40612C119.645 6.00111 120.695 7.14332 121.673 8.09445C122.499 9.00748 123.494 9.75638 124.606 10.3007C125.374 10.6508 126.231 10.7658 127.067 10.6308C127.292 10.5888 127.511 10.5203 127.719 10.4267C127.79 10.4 127.858 10.3666 127.922 10.3268Z" fill="#214B5F"/>
<path d="M96.0179 22.5045C95.9094 22.2385 95.8367 21.9596 95.8018 21.675C95.7611 20.8961 95.9811 20.1256 96.428 19.4818C96.9396 18.6132 97.8877 17.8835 98.849 16.9585C99.3668 16.4757 99.8003 15.9122 100.132 15.2907C100.454 14.6082 100.64 13.8709 100.679 13.1192C100.78 11.5775 100.511 10.1356 100.547 8.82832C100.496 7.67223 100.837 6.53237 101.517 5.58843C101.991 4.96475 102.679 4.53125 103.453 4.36804C103.745 4.32667 104.041 4.31939 104.335 4.34633C104.263 4.31476 104.188 4.29425 104.11 4.28552C103.892 4.25606 103.671 4.25606 103.453 4.28552C102.639 4.41987 101.907 4.85093 101.402 5.49288C100.719 6.27029 100.366 7.5037 100.348 8.82832C100.331 10.1529 100.564 11.6035 100.463 13.1062C100.428 13.8332 100.251 14.5468 99.9426 15.2082C99.626 15.8114 99.2103 16.3587 98.7123 16.8282C97.7774 17.7489 96.8117 18.522 96.3046 19.434C95.8527 20.1097 95.6488 20.9173 95.7269 21.7228C95.755 21.9381 95.8175 22.1477 95.9121 22.3438C95.9405 22.4015 95.9761 22.4554 96.0179 22.5045Z" fill="#214B5F"/>
<path d="M135.044 25.106C135.141 25.061 135.235 25.0103 135.326 24.954C135.582 24.7839 135.812 24.5793 136.01 24.3459C136.374 23.9085 136.638 23.3988 136.784 22.8517C136.93 22.3046 136.955 21.7329 136.856 21.1755C136.785 20.8046 136.659 20.4461 136.482 20.1115C136.271 19.7607 136.009 19.4418 135.706 19.1647C135.009 18.6007 134.238 18.1331 133.412 17.7749C132.516 17.3974 131.687 16.878 130.961 16.2375C130.259 15.477 129.779 14.5436 129.572 13.5361C129.307 12.5069 129.131 11.4645 128.782 10.496C128.456 9.57012 128.025 8.683 127.499 7.85113C126.615 6.43929 125.48 5.19609 124.148 4.18128C123.253 3.49722 122.272 2.93076 121.228 2.49618C120.948 2.3747 120.661 2.26885 120.368 2.17914C120.269 2.13868 120.166 2.10954 120.06 2.09229C120.06 2.11834 120.474 2.24863 121.193 2.5787C122.214 3.03897 123.172 3.62252 124.046 4.31591C125.347 5.33367 126.455 6.57025 127.318 7.9684C127.831 8.78867 128.25 9.66266 128.566 10.5742C128.901 11.521 129.078 12.5503 129.351 13.6143C129.566 14.6609 130.068 15.6296 130.802 16.4156C131.547 17.0706 132.396 17.6003 133.315 17.9834C134.127 18.3293 134.888 18.7807 135.578 19.3254C135.869 19.5878 136.121 19.8889 136.327 20.2201C136.501 20.5359 136.626 20.8755 136.698 21.2276C136.807 21.8396 136.773 22.4681 136.596 23.0647C136.461 23.5173 136.24 23.9403 135.944 24.3112C135.68 24.613 135.377 24.8801 135.044 25.106Z" fill="#141A1E"/>
<path d="M94.774 22.9084C94.796 22.9084 94.5888 22.6999 94.3065 22.2874C93.9177 21.7037 93.6509 21.0497 93.5216 20.3634C93.3371 19.3452 93.3747 18.3 93.6318 17.2972C93.9747 16.0732 94.5072 14.9086 95.2105 13.8445C95.9382 12.6936 96.7231 11.6513 97.3845 10.6654C97.984 9.79715 98.5049 8.87869 98.9412 7.92063C99.2344 7.27162 99.449 6.59088 99.5806 5.89244C99.6149 5.70278 99.6384 5.51139 99.6512 5.31916C99.6609 5.25291 99.6609 5.18563 99.6512 5.11938C99.6512 5.11938 99.5982 5.39299 99.488 5.87507C99.3279 6.56277 99.0959 7.23228 98.7957 7.87286C98.3401 8.81057 97.8092 9.71099 97.2082 10.5655C96.5423 11.5427 95.7485 12.5807 95.0033 13.7446C94.2872 14.8286 93.7499 16.0174 93.4114 17.2668C93.159 18.2995 93.1379 19.374 93.3496 20.4155C93.4999 21.1171 93.8006 21.779 94.2316 22.3568C94.3481 22.5123 94.4779 22.6576 94.6196 22.7911C94.6656 22.8368 94.7175 22.8762 94.774 22.9084Z" fill="#141A1E"/>
<path d="M140.578 83.4413L144.199 89.6475C144.199 89.6475 162.195 83.1634 172.73 85.0526C176.738 85.7692 181.025 94.7202 175.186 100.47C169.493 106.077 159.311 114.008 140.204 116.574C139.727 116.635 131.9 118.29 132.385 118.233C132.87 118.177 121.414 119.971 121.414 119.971L118.724 109.955L97.3849 113.252C84.8083 112.409 78.6523 99.1631 86.2282 94.8982C93.2838 90.9244 106.575 90.603 106.575 90.603L111.39 83.1677L140.578 83.4413Z" fill="#141A1E"/>
<path d="M120.977 120.357C120.925 120.019 120.77 119.107 120.462 117.235C120.29 116.236 120.082 115.02 119.813 113.621C119.677 112.918 119.527 112.175 119.346 111.389C119.253 110.994 119.156 110.594 119.037 110.182C118.98 109.978 118.918 109.773 118.843 109.565C118.775 109.341 118.665 109.131 118.517 108.948L118.486 109.1C123.028 107.511 128.708 105.413 134.758 102.898C138.48 101.339 141.99 99.7671 145.081 98.1211C146.555 97.3643 147.97 96.5006 149.315 95.537C150.567 94.625 151.687 93.7129 152.736 92.9312C154.809 91.3156 156.705 90.2733 158.103 89.8303C158.411 89.7225 158.725 89.6312 159.042 89.5567C159.273 89.4929 159.507 89.4436 159.744 89.409L160.185 89.3308L160.334 89.2961C160.283 89.2903 160.231 89.2903 160.18 89.2961L159.739 89.3525C159.498 89.378 159.26 89.42 159.025 89.4785C158.702 89.5448 158.384 89.6304 158.072 89.7347C157.213 90.0089 156.385 90.3714 155.603 90.8161C154.568 91.4057 153.576 92.066 152.635 92.7922C151.577 93.5783 150.457 94.4816 149.2 95.398C147.859 96.3509 146.449 97.2045 144.98 97.9517C141.893 99.576 138.387 101.144 134.67 102.699C128.624 105.209 122.953 107.324 118.424 108.935L118.296 108.983L118.393 109.087C118.517 109.253 118.611 109.438 118.671 109.634C118.746 109.834 118.808 110.038 118.87 110.238C118.989 110.642 119.09 111.046 119.183 111.432C119.368 112.214 119.527 112.957 119.668 113.656C119.95 115.055 120.17 116.262 120.356 117.261C120.541 118.26 120.691 119.02 120.797 119.563C120.85 119.828 120.889 120.032 120.925 120.166C120.938 120.231 120.955 120.295 120.977 120.357Z" fill="#214B5F"/>
<path d="M90.3647 96.1142H90.4838L90.8145 96.0621C91.1056 96.023 91.5289 95.9188 92.0889 95.8623C93.6572 95.6589 95.2416 95.6037 96.8206 95.6973C99.1637 95.8459 101.486 96.2242 103.753 96.8265C105.032 97.1609 106.363 97.5605 107.722 98.0252C109.08 98.4899 110.473 99.0241 111.898 99.5843C113.287 100.127 114.708 100.59 116.153 100.97C117.551 101.348 118.913 101.643 120.219 101.89C122.829 102.394 125.206 102.703 127.199 102.941C129.193 103.18 130.811 103.341 131.927 103.454L133.214 103.58L133.549 103.606C133.587 103.612 133.626 103.612 133.664 103.606H133.554L133.219 103.558L131.94 103.389L127.221 102.807C125.228 102.546 122.86 102.221 120.263 101.708C118.962 101.456 117.617 101.156 116.215 100.774C114.778 100.394 113.365 99.9345 111.981 99.3976C110.561 98.8373 109.163 98.2988 107.792 97.8384C106.421 97.378 105.089 96.9698 103.801 96.6441C101.52 96.0486 99.182 95.6862 96.825 95.5627C95.2365 95.4811 93.6436 95.5597 92.0713 95.7972C91.5113 95.8667 91.0923 95.9883 90.8013 96.0404L90.4706 96.1142C90.4354 96.1096 90.3998 96.1096 90.3647 96.1142Z" fill="#214B5F"/>
<path d="M123.243 92.5099C123.243 92.6575 124.196 92.8964 125.797 93.0441C129.976 93.3807 134.183 92.9387 138.197 91.7411C139.727 91.2634 140.622 90.8248 140.578 90.6815C140.477 90.3688 136.697 91.359 131.935 91.8454C127.172 92.3318 123.274 92.1798 123.243 92.5099Z" fill="#141A1E"/>
<path d="M106.372 90.7507C106.602 90.8304 106.838 90.8928 107.078 90.9375C107.356 90.9928 107.631 91.0624 107.902 91.1459C108.22 91.2372 108.586 91.3327 108.978 91.4717C109.906 91.7771 110.815 92.1323 111.703 92.5357C112.7 93.0048 113.776 93.5607 114.874 94.2034C116.734 95.3211 118.518 96.5571 120.214 97.9037C120.867 98.4162 121.392 98.8418 121.749 99.1371C121.928 99.2981 122.121 99.4434 122.326 99.5714C122.168 99.3896 121.995 99.2198 121.81 99.0633C121.467 98.7462 120.959 98.3033 120.316 97.7604C118.641 96.3689 116.86 95.1071 114.989 93.9863C113.954 93.3776 112.886 92.8238 111.792 92.3273C110.893 91.9268 109.969 91.583 109.027 91.298C108.63 91.1677 108.259 91.0808 107.933 91.0026C107.657 90.9285 107.378 90.8705 107.095 90.8289C106.857 90.7825 106.615 90.7563 106.372 90.7507Z" fill="#214B5F"/>
<path d="M126.379 99.5804C126.815 99.516 127.24 99.3963 127.644 99.2242C128.632 98.8528 129.596 98.4251 130.533 97.9431L133.324 96.4968C133.721 96.3165 134.106 96.1105 134.475 95.8801C134.051 95.9962 133.64 96.1548 133.249 96.3535C132.513 96.6836 131.516 97.1874 130.418 97.7389C129.32 98.2905 128.319 98.7682 127.574 99.0766C126.829 99.3849 126.37 99.5456 126.379 99.5804Z" fill="#214B5F"/>
<path d="M124.434 84.1885C124.399 84.1885 124.461 84.8399 124.527 85.8866C124.593 86.9333 124.655 88.3795 124.624 89.9777C124.593 91.576 124.474 93.0178 124.368 94.0689C124.285 94.6304 124.23 95.1957 124.205 95.7626C124.263 95.6236 124.301 95.4775 124.32 95.3283C124.381 95.0417 124.452 94.6204 124.527 94.0993C124.718 92.7388 124.827 91.3683 124.853 89.9951C124.879 88.6236 124.824 87.2519 124.69 85.8866C124.633 85.3611 124.58 84.9398 124.531 84.6488C124.518 84.4921 124.485 84.3375 124.434 84.1885Z" fill="#214B5F"/>
<path d="M122.428 84.8313C122.428 84.8313 122.507 84.9008 122.618 85.0311C122.772 85.2128 122.87 85.4344 122.9 85.6695C122.925 85.8384 122.913 86.0105 122.865 86.1745C122.817 86.3385 122.734 86.4906 122.622 86.6206C122.468 86.7555 122.279 86.8466 122.077 86.8842C121.874 86.9217 121.665 86.9043 121.472 86.8339C121.278 86.7634 121.108 86.6425 120.979 86.484C120.85 86.3256 120.767 86.1356 120.739 85.9344C120.744 85.7623 120.785 85.5931 120.861 85.4381C120.937 85.2831 121.046 85.1458 121.18 85.0354C121.358 84.876 121.578 84.7704 121.815 84.7314C121.987 84.7053 122.084 84.7314 122.088 84.701C122.093 84.6706 121.996 84.6445 121.806 84.6445C121.539 84.6523 121.281 84.747 121.074 84.9138C120.913 85.0338 120.782 85.1886 120.691 85.3663C120.6 85.544 120.552 85.7398 120.549 85.9388C120.57 86.1861 120.661 86.4225 120.814 86.6202C120.966 86.818 121.172 86.9688 121.408 87.055C121.645 87.1413 121.901 87.1593 122.147 87.1069C122.393 87.0546 122.619 86.9341 122.798 86.7596C122.927 86.6059 123.018 86.4258 123.066 86.2326C123.114 86.0394 123.118 85.8381 123.076 85.6434C123.029 85.3825 122.896 85.1443 122.697 84.9659C122.538 84.8487 122.432 84.8226 122.428 84.8313Z" fill="#214B5F"/>
<path d="M116.951 77.6785C117.048 77.8355 117.164 77.9811 117.294 78.1128C117.625 78.5003 117.979 78.8686 118.353 79.216C118.906 79.7348 119.496 80.2151 120.117 80.6535C120.881 81.1871 121.685 81.6647 122.52 82.0824C123.36 82.489 124.23 82.833 125.122 83.1117C125.853 83.3354 126.598 83.5095 127.353 83.6328C127.859 83.7199 128.37 83.7765 128.883 83.8022C129.071 83.8202 129.26 83.8202 129.448 83.8022C129.448 83.7588 128.65 83.7153 127.38 83.4721C126.634 83.3265 125.898 83.138 125.175 82.9075C122.694 82.1093 120.408 80.8123 118.463 79.0987C117.502 78.2562 116.986 77.6525 116.951 77.6785Z" fill="#141A1E"/>
<path d="M108.903 82.4988C108.903 82.564 109.697 82.564 110.631 82.7985C111.566 83.033 112.272 83.3805 112.307 83.324C111.328 82.6153 110.104 82.3185 108.903 82.4988Z" fill="#141A1E"/>
<g opacity="0.3">
<path d="M127.411 83.5848C123.577 82.893 120.104 80.9167 117.581 77.991C117.352 78.6784 117.321 79.4151 117.491 80.1191C117.662 80.823 118.027 81.4665 118.547 81.9779C117.427 82.499 116.113 82.1516 114.887 81.9779C113.661 81.8041 112.162 81.9779 111.575 83.0506C117.06 83.5506 122.572 83.7058 128.077 83.5153" fill="black"/>
</g>
<path d="M138.36 75.0726C138.913 74.5572 139.557 74.1464 140.261 73.8609C141.029 73.5675 141.85 73.4301 142.673 73.457C143.679 73.4926 144.664 73.754 145.553 74.2214C147.475 75.2029 148.639 76.8793 149.486 77.952C149.814 78.4026 150.109 78.8758 150.368 79.3678C150.454 79.5528 150.556 79.7301 150.672 79.8977C150.617 79.7011 150.542 79.5105 150.447 79.3288C150.221 78.817 149.95 78.3258 149.636 77.8608C149.226 77.2788 148.697 76.6274 148.088 75.9151C147.406 75.1438 146.587 74.5008 145.672 74.0172C144.751 73.5352 143.729 73.272 142.686 73.2485C141.836 73.2317 140.992 73.39 140.208 73.7132C139.681 73.9256 139.197 74.2301 138.779 74.6122C138.663 74.7124 138.557 74.8229 138.462 74.9423C138.387 75.0248 138.352 75.0683 138.36 75.0726Z" fill="#141A1E"/>
<path d="M126.816 33.4141L132.972 34.7039L129.894 46.0523L118.993 48.3584L111.514 43.1338L110.487 36.8755L116.898 34.4868L126.816 33.4141Z" fill="#FFBE9D"/>
<path d="M131.15 34.2395C131.15 34.2395 126.983 46.1567 119.283 45.0536C111.584 43.9505 112.228 36.2286 112.228 36.2286C112.228 36.2286 104.193 38.6433 101.711 41.2101C99.2279 43.7768 100.692 49.3576 100.692 49.3576L102.773 59.4421L107.307 78.7598C107.307 78.7598 105.574 84.0323 110.005 85.3352L111.403 83.1637L137.981 83.902C137.981 83.902 143.665 90.3557 145.438 88.1321C147.21 85.9084 148.913 81.5654 148.913 81.5654L136.702 35.6684L131.15 34.2395Z" fill="#214B5F"/>
<path d="M103.81 39.6855C103.594 39.8072 84.9405 53.1489 84.9405 53.1489C84.9405 53.1489 86.4046 64.1281 77.4439 62.3822C77.4439 62.3822 81.0599 71.5633 85.9548 69.635C87.3482 69.0878 104.542 58.3736 104.542 58.3736L108.189 50.7255L103.81 39.6855Z" fill="#214B5F"/>
<path d="M131.151 34.8257C131.151 34.8257 131.592 34.8257 132.284 34.9039C135.935 35.2513 149.412 38.0004 150.659 47.3683C151.312 52.2673 151.497 66.5949 152.203 72.6013C152.203 72.6013 151.078 80.9486 150.659 82.4947C149.914 85.2482 136.412 80.8357 136.412 80.8357L136.385 54.3432L131.561 34.8387" fill="#214B5F"/>
<path d="M139.678 58.895C139.666 58.9655 139.666 59.0374 139.678 59.1078C139.675 59.314 139.66 59.5199 139.634 59.7245C139.538 60.4691 139.347 61.1988 139.065 61.8961C138.721 62.7907 138.183 63.807 137.672 64.9709C137.391 65.5816 137.155 66.2115 136.966 66.8558C136.777 67.5509 136.655 68.2619 136.6 68.9795C136.522 70.3612 136.559 71.747 136.711 73.1228C136.821 74.3909 136.927 75.5331 137.085 76.4843C137.206 77.2363 137.384 77.9782 137.619 78.7035C137.707 78.9598 137.782 79.1378 137.84 79.2855C137.862 79.355 137.895 79.4208 137.937 79.481C137.937 79.481 137.853 79.1943 137.703 78.6775C137.506 77.9483 137.358 77.2069 137.262 76.4582C137.121 75.5114 137.033 74.3735 136.931 73.1097C136.796 71.743 136.767 70.3681 136.843 68.9969C136.895 68.2928 137.013 67.5949 137.196 66.9122C137.379 66.2777 137.608 65.6566 137.879 65.0534C138.391 63.8938 138.902 62.8602 139.233 61.9525C139.507 61.2356 139.676 60.484 139.736 59.7202C139.754 59.5136 139.754 59.3058 139.736 59.0991C139.723 59.0296 139.704 58.9613 139.678 58.895Z" fill="#141A1E"/>
<path d="M139.057 55.5505C139.017 55.5505 138.986 56.2237 138.832 57.2877C138.632 58.6882 138.303 60.0677 137.849 61.4093C137.712 61.8045 137.571 62.1823 137.408 62.5472C137.376 62.6316 137.339 62.7143 137.297 62.7947L137.139 63.0336C137.036 63.1924 136.942 63.3562 136.856 63.5243C136.541 64.1017 136.37 64.7449 136.358 65.4005C136.356 65.8476 136.444 66.2906 136.618 66.7034C136.679 66.8582 136.761 67.0042 136.861 67.1377C136.638 66.5999 136.523 66.0248 136.521 65.4439C136.553 64.8175 136.731 64.2068 137.042 63.659C137.125 63.5026 137.222 63.3463 137.324 63.1899L137.483 62.9511C137.536 62.8615 137.58 62.7669 137.615 62.6688C137.769 62.3039 137.91 61.9174 138.056 61.5222C138.519 60.1671 138.829 58.766 138.982 57.3442C139.044 56.8013 139.061 56.354 139.066 56.0413C139.082 55.8779 139.079 55.7132 139.057 55.5505Z" fill="#141A1E"/>
<path d="M138.519 51.5726C138.554 51.5726 138.757 51.0297 139.154 50.1741C139.673 49.0565 140.298 47.9892 141.019 46.9864C141.747 45.9892 142.566 45.0602 143.467 44.2112C144.159 43.5597 144.626 43.1906 144.6 43.1602C144.473 43.2196 144.354 43.2955 144.247 43.386C143.941 43.6068 143.647 43.8431 143.365 44.0939C141.47 45.748 139.982 47.8049 139.013 50.109C138.832 50.5433 138.7 50.9125 138.625 51.1687C138.573 51.2985 138.537 51.4341 138.519 51.5726Z" fill="#141A1E"/>
<path d="M100.3 43.7898C100.29 44.1422 100.32 44.4946 100.388 44.8408C100.467 45.4879 100.582 46.3782 100.683 47.3641C100.785 48.35 100.868 49.2446 100.926 49.8961C100.932 50.2486 100.977 50.5994 101.058 50.9428C101.108 50.5932 101.119 50.2392 101.089 49.8874C101.089 49.2316 101.018 48.3326 100.912 47.3424C100.807 46.3522 100.67 45.4575 100.551 44.8191C100.507 44.4678 100.422 44.1225 100.3 43.7898Z" fill="#141A1E"/>
<path d="M96.4633 54.9425C96.4633 54.9816 97.0454 55.0381 97.9494 55.29C99.1264 55.6115 100.198 56.2297 101.058 57.0836C101.515 57.5661 101.913 58.0996 102.244 58.6732C102.504 59.15 102.731 59.6433 102.924 60.1498L103.14 60.7405C103.193 60.9012 103.237 61.0532 103.281 61.1748C103.312 61.3078 103.361 61.4363 103.426 61.5569C103.429 61.4198 103.408 61.2833 103.365 61.153L103.263 60.6883L103.078 60.0803C102.903 59.5562 102.686 59.0465 102.43 58.5559C102.097 57.9727 101.691 57.4328 101.221 56.949C100.338 56.0646 99.2193 55.4443 97.9935 55.1597C97.7851 55.1031 97.5729 55.061 97.3585 55.0337C97.1997 55.0038 97.0391 54.9835 96.8778 54.9729C96.7421 54.9413 96.6022 54.9311 96.4633 54.9425Z" fill="#141A1E"/>
<path d="M84.111 67.0293C84.2272 66.8782 84.3263 66.7151 84.4065 66.5429C84.4991 66.3865 84.6049 66.1867 84.7152 65.9479C84.8254 65.709 84.9577 65.4484 85.0724 65.14C85.3628 64.4269 85.6001 63.6939 85.7823 62.9468C86.0036 62.0288 86.151 61.0951 86.2233 60.1543C86.2834 59.215 86.2671 58.2724 86.1748 57.3356C86.0942 56.5715 85.9586 55.8139 85.7691 55.0686C85.6986 54.7472 85.5971 54.4649 85.5222 54.2C85.4618 53.9858 85.3881 53.7755 85.3017 53.5702C85.244 53.3891 85.1671 53.2144 85.0724 53.0491C85.0283 53.0491 85.3237 53.8178 85.6104 55.086C85.7748 55.828 85.8927 56.5793 85.9631 57.3356C86.0419 58.2631 86.0537 59.1948 85.9984 60.1239C85.9275 61.0517 85.7889 61.9734 85.5839 62.8817C85.4123 63.6182 85.1944 64.3434 84.9313 65.0532C84.4638 66.2996 84.0714 67.0119 84.111 67.0293Z" fill="#141A1E"/>
<path d="M88.9575 63.7677C89.0374 63.6214 89.0967 63.465 89.1339 63.303C89.2569 62.8758 89.3483 62.4403 89.4073 62.0001C89.5966 60.517 89.4551 59.0112 88.9927 57.5876C88.5432 56.1577 87.7731 54.8456 86.7394 53.7483C86.4291 53.3946 85.9974 53.1658 85.5267 53.1056C85.3977 53.102 85.2695 53.1273 85.1519 53.1794C85.0769 53.2185 85.0372 53.2445 85.0416 53.2532C85.1967 53.204 85.3596 53.1834 85.5223 53.1924C85.9538 53.2859 86.3407 53.52 86.6203 53.8569C87.597 54.9616 88.3298 56.2542 88.7723 57.6527C89.222 59.0549 89.3839 60.5313 89.2485 61.9957C89.1339 63.0815 88.9178 63.7547 88.9575 63.7677Z" fill="#141A1E"/>
<path d="M119.283 61.6049C119.297 61.7811 119.334 61.9549 119.394 62.1217C119.44 62.3219 119.499 62.5192 119.57 62.7124C119.655 62.9719 119.754 63.2271 119.866 63.4768C120.144 64.1329 120.48 64.7636 120.871 65.3616C121.831 66.8355 123.087 68.1006 124.562 69.0792C125.161 69.4787 125.794 69.826 126.454 70.1172C126.705 70.2328 126.963 70.3343 127.225 70.4212C127.418 70.5002 127.618 70.5641 127.821 70.6123C127.99 70.6701 128.164 70.7108 128.341 70.7339C128.341 70.6905 127.618 70.4951 126.524 69.9739C125.883 69.6665 125.267 69.3107 124.681 68.9099C123.971 68.4124 123.304 67.8574 122.688 67.2508C122.086 66.6306 121.538 65.9607 121.052 65.2487C120.658 64.6641 120.311 64.0499 120.015 63.4116C119.508 62.3215 119.328 61.5919 119.283 61.6049Z" fill="#141A1E"/>
<g opacity="0.3">
<path d="M134.555 65.9043L137.095 56.784C137.218 56.3496 137.425 55.8155 137.888 55.7329C138.106 55.7255 138.319 55.7977 138.486 55.9356C138.653 56.0735 138.762 56.2674 138.792 56.4799C138.854 56.9223 138.854 57.3709 138.792 57.8132C138.594 59.798 138.435 61.1444 137.496 62.6818C135.666 65.6785 136.87 67.1334 136.87 67.1334C136.724 70.7815 137.037 75.7586 138.193 79.5067L137.103 84.0277C136.071 80.6662 133.712 77.865 133.315 74.3732C133.011 71.5111 133.765 68.6751 134.555 65.9043Z" fill="black"/>
</g>
<g opacity="0.3">
<path d="M102.764 59.5026C99.7437 61.0487 97.0582 63.1855 94.1169 64.8402C95.2678 62.4732 97.2037 60.1323 99.532 58.8772C100.14 58.4909 100.856 58.3039 101.578 58.343C102.293 58.4429 102.804 58.8381 102.694 59.5373" fill="black"/>
</g>
<g opacity="0.3">
<path d="M85.4566 52.9577C86.4885 52.9316 87.2646 53.8567 87.7717 54.7426C89.1979 57.2636 89.7811 60.1631 89.4386 63.0291C89.3769 63.5416 89.1828 64.1583 88.6669 64.2582C88.4765 64.2789 88.2844 64.2379 88.1197 64.1415C87.955 64.0452 87.8267 63.8986 87.7541 63.724C87.6126 63.3754 87.5538 62.9996 87.5821 62.6252C87.5821 60.888 87.7056 59.1291 87.4498 57.4136C87.194 55.6981 86.537 53.9609 85.2449 52.7839" fill="black"/>
</g>
<path d="M132.099 56.2194H131.993L131.689 56.1977L130.493 56.1369L125.978 55.9327L109.984 55.2639H109.878V55.3638C109.746 60.6623 109.591 66.7599 109.437 73.2136V73.8607V73.9737H109.512C116.101 74.0485 122.679 74.533 129.206 75.4242H129.29L129.312 75.3417C130.577 70.7772 131.364 66.0971 131.662 61.3746C131.768 59.6634 131.786 58.3344 131.786 57.405C131.786 56.9707 131.786 56.5972 131.786 56.3584V56.0934C131.786 56.0326 131.786 56.0022 131.786 56.0022C131.782 56.0325 131.782 56.0632 131.786 56.0934V56.3627C131.786 56.6059 131.786 56.9577 131.786 57.405C131.786 58.3214 131.728 59.6634 131.609 61.3659C131.271 66.0762 130.459 70.7418 129.184 75.2939L129.294 75.2201C122.74 74.3032 116.132 73.8056 109.512 73.7305L109.627 73.8477V73.2006C109.781 66.7469 109.922 60.6493 110.068 55.3508L109.962 55.4507L125.96 56.037L130.48 56.1846L131.675 56.2194H132.085H132.099Z" fill="white"/>
<path d="M126.269 69.3832C126.33 69.3832 126.882 66.4603 127.499 62.8296C128.116 59.1988 128.566 56.2499 128.504 56.2369C128.443 56.2238 127.891 59.1597 127.274 62.7948C126.657 66.4299 126.224 69.3745 126.269 69.3832Z" fill="white"/>
<path d="M125.625 74.9859C125.862 74.2135 126.025 73.4211 126.114 72.6189C126.277 71.8265 126.365 71.0212 126.379 70.2129C126.141 70.9867 125.978 71.7805 125.889 72.5842C125.721 73.3743 125.633 74.1787 125.625 74.9859Z" fill="white"/>
<path d="M121.824 66.4774C121.886 66.3501 121.928 66.2137 121.947 66.0735C122.013 65.8129 122.097 65.4264 122.19 64.953C122.375 64.0019 122.582 62.6816 122.732 61.2136C122.882 59.7457 122.939 58.4081 122.952 57.4439C122.952 56.9575 122.952 56.5753 122.952 56.2973C122.956 56.1515 122.943 56.0058 122.913 55.863C122.842 56.3798 122.805 56.9007 122.802 57.4222C122.75 58.3863 122.666 59.7153 122.516 61.1789C122.366 62.6425 122.185 63.9584 122.044 64.9139C121.939 65.4303 121.865 65.9524 121.824 66.4774Z" fill="white"/>
<path d="M122.327 74.4037C122.568 73.3933 122.734 72.3671 122.825 71.3332C122.996 70.3092 123.087 69.2741 123.099 68.2366C122.858 69.247 122.692 70.2732 122.6 71.3071C122.43 72.331 122.339 73.3662 122.327 74.4037Z" fill="white"/>
<path d="M117.343 74.052C117.39 73.8155 117.419 73.576 117.431 73.3354L117.603 71.3811C117.749 69.7351 117.965 67.4723 118.256 64.949C118.547 62.4258 118.865 60.1717 119.103 58.5344C119.217 57.744 119.314 57.0882 119.385 56.5931C119.43 56.3565 119.456 56.117 119.464 55.8765C119.387 56.1056 119.331 56.341 119.297 56.58C119.204 57.0143 119.085 57.6918 118.944 58.5083C118.662 60.1457 118.322 62.4171 118.027 64.923C117.731 67.4289 117.546 69.7003 117.44 71.3724C117.392 72.1975 117.356 72.8664 117.343 73.3311C117.32 73.5709 117.32 73.8122 117.343 74.052Z" fill="white"/>
<path d="M113.101 74.2865C113.133 74.0447 113.145 73.8006 113.136 73.5569C113.136 73.0488 113.136 72.3756 113.136 71.5678C113.136 69.8914 113.198 67.5722 113.317 65.0185C113.436 62.4648 113.621 60.15 113.758 58.4779C113.829 57.6745 113.886 57.0056 113.93 56.5018C113.961 56.2599 113.974 56.016 113.97 55.7722C113.905 56.0067 113.862 56.2466 113.842 56.4888C113.771 56.9535 113.688 57.631 113.595 58.4649C113.41 60.1326 113.207 62.4474 113.079 65.0055C112.951 67.5635 112.938 69.887 112.964 71.5678C112.964 72.406 112.995 73.0878 113.017 73.5569C113.027 73.8018 113.055 74.0457 113.101 74.2865Z" fill="white"/>
<g opacity="0.3">
<path d="M127.993 70.7642C127.302 71.1978 126.485 71.3933 125.669 71.3201C124.859 71.2476 124.066 71.0436 123.323 70.7164C122.311 70.3452 121.399 69.751 120.655 68.9792C119.933 68.0951 119.475 67.0304 119.332 65.9044C119.186 64.7798 119.148 63.6441 119.218 62.5125C119.214 62.4636 119.226 62.4147 119.253 62.3735C119.269 62.3572 119.288 62.3443 119.309 62.3354C119.331 62.3266 119.353 62.322 119.376 62.322C119.4 62.322 119.422 62.3266 119.444 62.3354C119.465 62.3443 119.484 62.3572 119.5 62.3735C119.566 62.4403 119.613 62.5225 119.637 62.6124C120.312 64.5044 121.436 66.2103 122.915 67.5881C124.395 68.966 126.187 69.976 128.143 70.534" fill="black"/>
</g>
<path d="M130.723 107.141L133.417 102.164L139.476 74.2342C139.476 74.2342 145.05 71.0812 149.618 77.991C149.799 78.2689 143.339 98.2729 141.535 103.836L141.284 109.161C141.284 109.161 141.601 115.463 141.284 116.014C141 116.401 140.612 116.702 140.164 116.883C140.164 116.883 140.402 118.459 138.563 118.62C138.563 118.62 138.404 120.357 137.046 120.118C136.677 120.074 136.322 119.953 136.004 119.763C135.686 119.572 135.413 119.318 135.203 119.015C135.203 119.015 135.203 121.217 134.003 120.983C132.804 120.748 132.61 119.801 132.389 119.489C132.169 119.176 131.913 115.94 131.913 115.94L131.935 110.607L128.813 113.1C127.931 113.534 126.586 114.09 125.837 113.426L130.723 107.141Z" fill="#FFBE9D"/>
<path d="M131.93 110.333C131.725 111.278 131.666 112.247 131.754 113.209C131.789 113.947 131.82 114.62 131.851 115.237C131.841 115.518 131.868 115.8 131.93 116.075C132.053 115.121 132.071 114.157 131.983 113.2C131.904 111.619 132.001 110.342 131.93 110.333Z" fill="#EB996E"/>
<path d="M135.37 114.051C135.194 115.805 135.17 117.57 135.3 119.328C135.476 117.574 135.5 115.809 135.37 114.051Z" fill="#EB996E"/>
<path d="M138.254 115.02C138.051 116.246 138.174 117.503 138.611 118.668C138.673 118.668 138.514 117.847 138.422 116.844C138.4 116.233 138.344 115.624 138.254 115.02Z" fill="#EB996E"/>
<path d="M140.111 114.403C140.036 115.202 140.117 116.009 140.349 116.778C140.426 116.383 140.426 115.976 140.349 115.58C140.343 115.176 140.262 114.778 140.111 114.403Z" fill="#EB996E"/>
<path d="M95.2791 54.7776L94.7684 55.7102L93.8357 56.2209L94.7684 56.7316L95.2791 57.6643L95.7898 56.7316L96.7224 56.2209L95.7898 55.7102L95.2791 54.7776Z" fill="#27847F"/>
<path d="M91.8711 42.0054L91.3416 41.9705L90.9142 41.6533L90.8793 42.1855L90.5621 42.6129L91.0943 42.6478L91.5217 42.9623L91.5566 42.4328L91.8711 42.0054Z" fill="#27847F"/>
<path d="M5.90009 84.4185L5.37059 84.3836L4.94324 84.0664L4.9083 84.5986L4.59114 85.0259L5.12331 85.0609L5.55068 85.3754L5.5856 84.8459L5.90009 84.4185Z" fill="#27847F"/>
<path d="M66.4581 57.8819L65.9286 57.8469L65.4986 57.5325L65.4636 58.062L65.1492 58.4893L65.6787 58.5243L66.1087 58.8387L66.141 58.3092L66.4581 57.8819Z" fill="#27847F"/>
<path d="M63.2275 35.1702L62.698 35.1353L62.2706 34.8208L62.2357 35.3503L61.9212 35.7777L62.4507 35.8126L62.8781 36.1297L62.913 35.5976L63.2275 35.1702Z" fill="#27847F"/>
<path d="M79.5021 49.265L78.6957 48.8L78.2684 47.9749L77.8034 48.7812L76.9756 49.2112L77.7819 49.6735L78.2119 50.5014L78.6769 49.695L79.5021 49.265Z" fill="#27847F"/>
<path d="M11.7563 95.0941L10.95 94.6291L10.5227 93.804L10.0577 94.6103L9.23252 95.0376L10.0389 95.5026L10.4662 96.3278L10.9312 95.5214L11.7563 95.0941Z" fill="#27847F"/>
<path d="M15.8071 80.3519L15.0007 79.8869L14.5707 79.0618L14.1057 79.8681L13.2806 80.2955L14.0869 80.7604L14.5169 81.5883L14.9792 80.7793L15.8071 80.3519Z" fill="#27847F"/>
</svg>
